<?xml version="1.0" encoding="UTF-8"?>
<svg version="1.1" xmlns="http://www.w3.org/2000/svg" width="2048" height="512">
<path d="M0 0 C675.84 0 1351.68 0 2048 0 C2048 168.96 2048 337.92 2048 512 C1372.16 512 696.32 512 0 512 C0 343.04 0 174.08 0 0 Z " fill="#FDFDFD" transform="translate(0,0)"/>
<path d="M0 0 C2.01822917 0.06510417 4.03645833 0.13020833 6.0546875 0.1953125 C6.0546875 1.1853125 6.0546875 2.1753125 6.0546875 3.1953125 C7.0446875 3.1953125 8.0346875 3.1953125 9.0546875 3.1953125 C9.0546875 12.4353125 9.0546875 21.6753125 9.0546875 31.1953125 C8.0646875 31.1953125 7.0746875 31.1953125 6.0546875 31.1953125 C6.0546875 41.0953125 6.0546875 50.9953125 6.0546875 61.1953125 C5.0646875 61.1953125 4.0746875 61.1953125 3.0546875 61.1953125 C3.0546875 70.4353125 3.0546875 79.6753125 3.0546875 89.1953125 C2.0646875 89.1953125 1.0746875 89.1953125 0.0546875 89.1953125 C0.0546875 95.4653125 0.0546875 101.7353125 0.0546875 108.1953125 C-0.9353125 108.1953125 -1.9253125 108.1953125 -2.9453125 108.1953125 C-2.9453125 112.1553125 -2.9453125 116.1153125 -2.9453125 120.1953125 C-3.6053125 120.1953125 -4.2653125 120.1953125 -4.9453125 120.1953125 C-4.9453125 123.8253125 -4.9453125 127.4553125 -4.9453125 131.1953125 C-5.9353125 131.1953125 -6.9253125 131.1953125 -7.9453125 131.1953125 C-7.9453125 133.8353125 -7.9453125 136.4753125 -7.9453125 139.1953125 C-8.9353125 139.1953125 -9.9253125 139.1953125 -10.9453125 139.1953125 C-10.9453125 142.1653125 -10.9453125 145.1353125 -10.9453125 148.1953125 C-11.6053125 148.1953125 -12.2653125 148.1953125 -12.9453125 148.1953125 C-12.9453125 149.8453125 -12.9453125 151.4953125 -12.9453125 153.1953125 C-13.9353125 153.1953125 -14.9253125 153.1953125 -15.9453125 153.1953125 C-15.9453125 154.5153125 -15.9453125 155.8353125 -15.9453125 157.1953125 C-16.6053125 157.1953125 -17.2653125 157.1953125 -17.9453125 157.1953125 C-17.9453125 159.1753125 -17.9453125 161.1553125 -17.9453125 163.1953125 C-18.9353125 163.1953125 -19.9253125 163.1953125 -20.9453125 163.1953125 C-20.9453125 165.1753125 -20.9453125 167.1553125 -20.9453125 169.1953125 C-21.6053125 169.5253125 -22.2653125 169.8553125 -22.9453125 170.1953125 C-23.60086369 172.72264485 -23.60086369 172.72264485 -23.9453125 175.1953125 C-24.6053125 175.1953125 -25.2653125 175.1953125 -25.9453125 175.1953125 C-25.8628125 175.9378125 -25.7803125 176.6803125 -25.6953125 177.4453125 C-25.9453125 180.1953125 -25.9453125 180.1953125 -27.7578125 182.5078125 C-29.9453125 184.1953125 -29.9453125 184.1953125 -32.9453125 184.1953125 C-33.2753125 185.8453125 -33.6053125 187.4953125 -33.9453125 189.1953125 C-34.9353125 189.5253125 -35.9253125 189.8553125 -36.9453125 190.1953125 C-36.9453125 190.8553125 -36.9453125 191.5153125 -36.9453125 192.1953125 C-37.9353125 192.8553125 -38.9253125 193.5153125 -39.9453125 194.1953125 C-40.1928125 195.0615625 -40.4403125 195.9278125 -40.6953125 196.8203125 C-42.41136315 201.45364924 -45.3371803 204.84247268 -48.9453125 208.1953125 C-49.6053125 208.1953125 -50.2653125 208.1953125 -50.9453125 208.1953125 C-50.9453125 208.8553125 -50.9453125 209.5153125 -50.9453125 210.1953125 C-51.6053125 210.1953125 -52.2653125 210.1953125 -52.9453125 210.1953125 C-52.9453125 210.8553125 -52.9453125 211.5153125 -52.9453125 212.1953125 C-53.6053125 212.1953125 -54.2653125 212.1953125 -54.9453125 212.1953125 C-54.9453125 212.8553125 -54.9453125 213.5153125 -54.9453125 214.1953125 C-55.6053125 214.1953125 -56.2653125 214.1953125 -56.9453125 214.1953125 C-56.9453125 214.8553125 -56.9453125 215.5153125 -56.9453125 216.1953125 C-57.6053125 216.1953125 -58.2653125 216.1953125 -58.9453125 216.1953125 C-58.9453125 216.8553125 -58.9453125 217.5153125 -58.9453125 218.1953125 C-59.6053125 218.1953125 -60.2653125 218.1953125 -60.9453125 218.1953125 C-60.9453125 218.8553125 -60.9453125 219.5153125 -60.9453125 220.1953125 C-64.17322805 222.3472562 -65.22932059 222.39617693 -68.9453125 222.1953125 C-69.1721875 222.7521875 -69.3990625 223.3090625 -69.6328125 223.8828125 C-71.34379465 226.89740009 -73.3176855 228.94306079 -75.9453125 231.1953125 C-77.2653125 231.1953125 -78.5853125 231.1953125 -79.9453125 231.1953125 C-80.1515625 231.8140625 -80.3578125 232.4328125 -80.5703125 233.0703125 C-82.48780493 236.03370989 -84.64648982 236.21268447 -87.9453125 237.1953125 C-88.2753125 237.8553125 -88.6053125 238.5153125 -88.9453125 239.1953125 C-90.27864583 239.52864583 -91.61197917 239.86197917 -92.9453125 240.1953125 C-93.2753125 240.8553125 -93.6053125 241.5153125 -93.9453125 242.1953125 C-95.27864583 242.52864583 -96.61197917 242.86197917 -97.9453125 243.1953125 C-98.2753125 243.8553125 -98.6053125 244.5153125 -98.9453125 245.1953125 C-100.27864583 245.52864583 -101.61197917 245.86197917 -102.9453125 246.1953125 C-103.2753125 246.8553125 -103.6053125 247.5153125 -103.9453125 248.1953125 C-106.27779011 248.53458197 -108.61116721 248.86771316 -110.9453125 249.1953125 C-111.6053125 249.8553125 -112.2653125 250.5153125 -112.9453125 251.1953125 C-115.63370635 251.46523156 -118.23673186 251.28268607 -120.9453125 251.1953125 C-120.9453125 251.8553125 -120.9453125 252.5153125 -120.9453125 253.1953125 C-123.5853125 253.1953125 -126.2253125 253.1953125 -128.9453125 253.1953125 C-129.2753125 254.5153125 -129.6053125 255.8353125 -129.9453125 257.1953125 C-132.5853125 257.1953125 -135.2253125 257.1953125 -137.9453125 257.1953125 C-137.9453125 257.8553125 -137.9453125 258.5153125 -137.9453125 259.1953125 C-140.5853125 259.1953125 -143.2253125 259.1953125 -145.9453125 259.1953125 C-145.9453125 260.1853125 -145.9453125 261.1753125 -145.9453125 262.1953125 C-149.5753125 262.1953125 -153.2053125 262.1953125 -156.9453125 262.1953125 C-156.9453125 263.1853125 -156.9453125 264.1753125 -156.9453125 265.1953125 C-159.5853125 265.1953125 -162.2253125 265.1953125 -164.9453125 265.1953125 C-164.9453125 265.8553125 -164.9453125 266.5153125 -164.9453125 267.1953125 C-165.79996094 267.24429687 -166.65460938 267.29328125 -167.53515625 267.34375 C-169.19224609 267.45589844 -169.19224609 267.45589844 -170.8828125 267.5703125 C-171.98496094 267.63992188 -173.08710938 267.70953125 -174.22265625 267.78125 C-175.12113281 267.91789062 -176.01960938 268.05453125 -176.9453125 268.1953125 C-177.2753125 268.8553125 -177.6053125 269.5153125 -177.9453125 270.1953125 C-180.27864583 270.52864583 -182.61197917 270.86197917 -184.9453125 271.1953125 C-185.2753125 271.8553125 -185.6053125 272.5153125 -185.9453125 273.1953125 C-187.2653125 273.1953125 -188.5853125 273.1953125 -189.9453125 273.1953125 C-189.9453125 274.1853125 -189.9453125 275.1753125 -189.9453125 276.1953125 C-193.2453125 276.1953125 -196.5453125 276.1953125 -199.9453125 276.1953125 C-199.9453125 277.1853125 -199.9453125 278.1753125 -199.9453125 279.1953125 C-201.5953125 279.1953125 -203.2453125 279.1953125 -204.9453125 279.1953125 C-204.9453125 280.1853125 -204.9453125 281.1753125 -204.9453125 282.1953125 C-205.7496875 282.3190625 -206.5540625 282.4428125 -207.3828125 282.5703125 C-208.2284375 282.7765625 -209.0740625 282.9828125 -209.9453125 283.1953125 C-210.2753125 283.8553125 -210.6053125 284.5153125 -210.9453125 285.1953125 C-212.5953125 285.1953125 -214.2453125 285.1953125 -215.9453125 285.1953125 C-215.9453125 285.8553125 -215.9453125 286.5153125 -215.9453125 287.1953125 C-217.5953125 287.1953125 -219.2453125 287.1953125 -220.9453125 287.1953125 C-220.9453125 288.1853125 -220.9453125 289.1753125 -220.9453125 290.1953125 C-224.5753125 290.1953125 -228.2053125 290.1953125 -231.9453125 290.1953125 C-231.9453125 289.2053125 -231.9453125 288.2153125 -231.9453125 287.1953125 C-232.6053125 287.1953125 -233.2653125 287.1953125 -233.9453125 287.1953125 C-233.9453125 284.5553125 -233.9453125 281.9153125 -233.9453125 279.1953125 C-234.9353125 279.1953125 -235.9253125 279.1953125 -236.9453125 279.1953125 C-236.9453125 276.5553125 -236.9453125 273.9153125 -236.9453125 271.1953125 C-235.9553125 271.1953125 -234.9653125 271.1953125 -233.9453125 271.1953125 C-233.9453125 265.5853125 -233.9453125 259.9753125 -233.9453125 254.1953125 C-233.2853125 254.1953125 -232.6253125 254.1953125 -231.9453125 254.1953125 C-231.9453125 251.5553125 -231.9453125 248.9153125 -231.9453125 246.1953125 C-230.9553125 246.1953125 -229.9653125 246.1953125 -228.9453125 246.1953125 C-228.4503125 242.2353125 -228.4503125 242.2353125 -227.9453125 238.1953125 C-226.9553125 238.1953125 -225.9653125 238.1953125 -224.9453125 238.1953125 C-224.9453125 236.8753125 -224.9453125 235.5553125 -224.9453125 234.1953125 C-224.2853125 234.1953125 -223.6253125 234.1953125 -222.9453125 234.1953125 C-222.9453125 232.5453125 -222.9453125 230.8953125 -222.9453125 229.1953125 C-221.9553125 229.1953125 -220.9653125 229.1953125 -219.9453125 229.1953125 C-219.9453125 227.5453125 -219.9453125 225.8953125 -219.9453125 224.1953125 C-219.2853125 224.1953125 -218.6253125 224.1953125 -217.9453125 224.1953125 C-217.6153125 221.8853125 -217.2853125 219.5753125 -216.9453125 217.1953125 C-215.9553125 216.8653125 -214.9653125 216.5353125 -213.9453125 216.1953125 C-212.77448372 213.26617085 -212.77448372 213.26617085 -211.9453125 210.1953125 C-211.6153125 209.5353125 -211.2853125 208.8753125 -210.9453125 208.1953125 C-209.9553125 208.1953125 -208.9653125 208.1953125 -207.9453125 208.1953125 C-207.2853125 206.8753125 -206.6253125 205.5553125 -205.9453125 204.1953125 C-205.2853125 204.1953125 -204.6253125 204.1953125 -203.9453125 204.1953125 C-203.9453125 203.5353125 -203.9453125 202.8753125 -203.9453125 202.1953125 C-203.2853125 202.1953125 -202.6253125 202.1953125 -201.9453125 202.1953125 C-201.85540039 201.62006836 -201.76548828 201.04482422 -201.67285156 200.45214844 C-200.20064941 195.88535761 -196.02485326 192.76384651 -192.6953125 189.4453125 C-191.93089844 188.65253906 -191.16648437 187.85976563 -190.37890625 187.04296875 C-189.63253906 186.29402344 -188.88617188 185.54507813 -188.1171875 184.7734375 C-187.4375293 184.08668945 -186.75787109 183.39994141 -186.05761719 182.69238281 C-183.49380179 180.87530977 -182.0212583 180.88812035 -178.9453125 181.1953125 C-178.9453125 180.5353125 -178.9453125 179.8753125 -178.9453125 179.1953125 C-177.9553125 179.1953125 -176.9653125 179.1953125 -175.9453125 179.1953125 C-175.8834375 178.5971875 -175.8215625 177.9990625 -175.7578125 177.3828125 C-174.60976568 174.29191721 -172.83984198 173.6072781 -169.9453125 172.1953125 C-169.2853125 172.1953125 -168.6253125 172.1953125 -167.9453125 172.1953125 C-167.6153125 171.2053125 -167.2853125 170.2153125 -166.9453125 169.1953125 C-165.2953125 169.1953125 -163.6453125 169.1953125 -161.9453125 169.1953125 C-161.5740625 168.23625 -161.5740625 168.23625 -161.1953125 167.2578125 C-159.9453125 165.1953125 -159.9453125 165.1953125 -157.8203125 164.4453125 C-157.2015625 164.3628125 -156.5828125 164.2803125 -155.9453125 164.1953125 C-155.9453125 163.2053125 -155.9453125 162.2153125 -155.9453125 161.1953125 C-158.91596759 161.53758822 -158.91596759 161.53758822 -161.9453125 162.1953125 C-162.2753125 162.8553125 -162.6053125 163.5153125 -162.9453125 164.1953125 C-163.7084375 164.2984375 -164.4715625 164.4015625 -165.2578125 164.5078125 C-168.18571306 164.96511007 -168.18571306 164.96511007 -169.9453125 167.7578125 C-171.9453125 170.1953125 -171.9453125 170.1953125 -174.6953125 170.5078125 C-175.8090625 170.353125 -175.8090625 170.353125 -176.9453125 170.1953125 C-176.9453125 170.8553125 -176.9453125 171.5153125 -176.9453125 172.1953125 C-178.5953125 172.1953125 -180.2453125 172.1953125 -181.9453125 172.1953125 C-181.9453125 173.1853125 -181.9453125 174.1753125 -181.9453125 175.1953125 C-183.3375 175.5975 -183.3375 175.5975 -184.7578125 176.0078125 C-187.83412089 177.15388817 -188.77862186 177.93013592 -190.9453125 180.1953125 C-191.5640625 180.3190625 -192.1828125 180.4428125 -192.8203125 180.5703125 C-196.01688335 181.5104804 -197.6548034 183.84607239 -199.9453125 186.1953125 C-200.9353125 186.5253125 -201.9253125 186.8553125 -202.9453125 187.1953125 C-203.2753125 187.8553125 -203.6053125 188.5153125 -203.9453125 189.1953125 C-204.6053125 189.1953125 -205.2653125 189.1953125 -205.9453125 189.1953125 C-205.9453125 189.8553125 -205.9453125 190.5153125 -205.9453125 191.1953125 C-206.6053125 191.1953125 -207.2653125 191.1953125 -207.9453125 191.1953125 C-207.9453125 191.8553125 -207.9453125 192.5153125 -207.9453125 193.1953125 C-208.6053125 193.1953125 -209.2653125 193.1953125 -209.9453125 193.1953125 C-209.9453125 193.8553125 -209.9453125 194.5153125 -209.9453125 195.1953125 C-211.59534078 196.54918186 -213.2627512 197.88209392 -214.9453125 199.1953125 C-215.2753125 199.8553125 -215.6053125 200.5153125 -215.9453125 201.1953125 C-216.6053125 201.1953125 -217.2653125 201.1953125 -217.9453125 201.1953125 C-217.9453125 201.8553125 -217.9453125 202.5153125 -217.9453125 203.1953125 C-218.6053125 203.1953125 -219.2653125 203.1953125 -219.9453125 203.1953125 C-219.9453125 203.8553125 -219.9453125 204.5153125 -219.9453125 205.1953125 C-221.3359375 206.5625 -221.3359375 206.5625 -223.1953125 208.0703125 C-225.34550313 209.84259084 -227.30860956 211.5684284 -229.2578125 213.5703125 C-230.9453125 215.1953125 -230.9453125 215.1953125 -232.9453125 215.1953125 C-233.4403125 218.1653125 -233.4403125 218.1653125 -233.9453125 221.1953125 C-234.6053125 221.1953125 -235.2653125 221.1953125 -235.9453125 221.1953125 C-235.9453125 221.8553125 -235.9453125 222.5153125 -235.9453125 223.1953125 C-236.6053125 223.1953125 -237.2653125 223.1953125 -237.9453125 223.1953125 C-237.9453125 224.8453125 -237.9453125 226.4953125 -237.9453125 228.1953125 C-238.6053125 228.5253125 -239.2653125 228.8553125 -239.9453125 229.1953125 C-240.60303678 232.22465741 -240.60303678 232.22465741 -240.9453125 235.1953125 C-241.6053125 235.1953125 -242.2653125 235.1953125 -242.9453125 235.1953125 C-242.9453125 236.8453125 -242.9453125 238.4953125 -242.9453125 240.1953125 C-243.6053125 240.1953125 -244.2653125 240.1953125 -244.9453125 240.1953125 C-244.9453125 241.8453125 -244.9453125 243.4953125 -244.9453125 245.1953125 C-245.9353125 245.5253125 -246.9253125 245.8553125 -247.9453125 246.1953125 C-248.2753125 248.5053125 -248.6053125 250.8153125 -248.9453125 253.1953125 C-249.6053125 253.1953125 -250.2653125 253.1953125 -250.9453125 253.1953125 C-250.9453125 258.1453125 -250.9453125 263.0953125 -250.9453125 268.1953125 C-251.9353125 268.1953125 -252.9253125 268.1953125 -253.9453125 268.1953125 C-253.9453125 272.4853125 -253.9453125 276.7753125 -253.9453125 281.1953125 C-254.6053125 281.5253125 -255.2653125 281.8553125 -255.9453125 282.1953125 C-256.2753125 296.0553125 -256.6053125 309.9153125 -256.9453125 324.1953125 C-255.9553125 324.1953125 -254.9653125 324.1953125 -253.9453125 324.1953125 C-253.9453125 328.4853125 -253.9453125 332.7753125 -253.9453125 337.1953125 C-252.9553125 337.1953125 -251.9653125 337.1953125 -250.9453125 337.1953125 C-250.9453125 340.8253125 -250.9453125 344.4553125 -250.9453125 348.1953125 C-249.9553125 348.1953125 -248.9653125 348.1953125 -247.9453125 348.1953125 C-247.9453125 350.8353125 -247.9453125 353.4753125 -247.9453125 356.1953125 C-247.2853125 356.1953125 -246.6253125 356.1953125 -245.9453125 356.1953125 C-244.52272438 360.01851807 -243.70488974 363.10812555 -243.9453125 367.1953125 C-244.6053125 367.1953125 -245.2653125 367.1953125 -245.9453125 367.1953125 C-245.9453125 368.1853125 -245.9453125 369.1753125 -245.9453125 370.1953125 C-251.26543143 370.54417276 -251.26543143 370.54417276 -253.9453125 370.1953125 C-255.9453125 368.3203125 -255.9453125 368.3203125 -256.9453125 366.1953125 C-256.9453125 365.5353125 -256.9453125 364.8753125 -256.9453125 364.1953125 C-257.9353125 364.1953125 -258.9253125 364.1953125 -259.9453125 364.1953125 C-259.9453125 361.8853125 -259.9453125 359.5753125 -259.9453125 357.1953125 C-260.6053125 357.1953125 -261.2653125 357.1953125 -261.9453125 357.1953125 C-261.9453125 354.2253125 -261.9453125 351.2553125 -261.9453125 348.1953125 C-262.9353125 348.1953125 -263.9253125 348.1953125 -264.9453125 348.1953125 C-264.9453125 344.5653125 -264.9453125 340.9353125 -264.9453125 337.1953125 C-265.9353125 337.1953125 -266.9253125 337.1953125 -267.9453125 337.1953125 C-267.9453125 333.2353125 -267.9453125 329.2753125 -267.9453125 325.1953125 C-268.9353125 325.1953125 -269.9253125 325.1953125 -270.9453125 325.1953125 C-270.9453125 320.9053125 -270.9453125 316.6153125 -270.9453125 312.1953125 C-271.6053125 312.1953125 -272.2653125 312.1953125 -272.9453125 312.1953125 C-272.9453125 305.5953125 -272.9453125 298.9953125 -272.9453125 292.1953125 C-273.9353125 292.1953125 -274.9253125 292.1953125 -275.9453125 292.1953125 C-275.9453125 267.4453125 -275.9453125 242.6953125 -275.9453125 217.1953125 C-274.9553125 217.1953125 -273.9653125 217.1953125 -272.9453125 217.1953125 C-272.9453125 210.5953125 -272.9453125 203.9953125 -272.9453125 197.1953125 C-272.2853125 197.1953125 -271.6253125 197.1953125 -270.9453125 197.1953125 C-270.9453125 192.9053125 -270.9453125 188.6153125 -270.9453125 184.1953125 C-269.9553125 184.1953125 -268.9653125 184.1953125 -267.9453125 184.1953125 C-267.9453125 180.2353125 -267.9453125 176.2753125 -267.9453125 172.1953125 C-267.2853125 172.1953125 -266.6253125 172.1953125 -265.9453125 172.1953125 C-265.9453125 169.8853125 -265.9453125 167.5753125 -265.9453125 165.1953125 C-264.6253125 164.8653125 -263.3053125 164.5353125 -261.9453125 164.1953125 C-261.9453125 161.5553125 -261.9453125 158.9153125 -261.9453125 156.1953125 C-261.2853125 156.1953125 -260.6253125 156.1953125 -259.9453125 156.1953125 C-259.9453125 153.5553125 -259.9453125 150.9153125 -259.9453125 148.1953125 C-258.6253125 148.1953125 -257.3053125 148.1953125 -255.9453125 148.1953125 C-255.9453125 146.2153125 -255.9453125 144.2353125 -255.9453125 142.1953125 C-255.2853125 142.1953125 -254.6253125 142.1953125 -253.9453125 142.1953125 C-253.9453125 140.5453125 -253.9453125 138.8953125 -253.9453125 137.1953125 C-252.9553125 137.1953125 -251.9653125 137.1953125 -250.9453125 137.1953125 C-250.9453125 135.5453125 -250.9453125 133.8953125 -250.9453125 132.1953125 C-250.2853125 132.1953125 -249.6253125 132.1953125 -248.9453125 132.1953125 C-248.9453125 130.5453125 -248.9453125 128.8953125 -248.9453125 127.1953125 C-247.4603125 126.7003125 -247.4603125 126.7003125 -245.9453125 126.1953125 C-245.9453125 125.5353125 -245.9453125 124.8753125 -245.9453125 124.1953125 C-244.9553125 124.1953125 -243.9653125 124.1953125 -242.9453125 124.1953125 C-243.05286865 123.48721436 -243.1604248 122.77911621 -243.27124023 122.04956055 C-242.81176846 118.02582681 -240.54544481 116.18618728 -237.73046875 113.52734375 C-237.20013535 113.00645676 -236.66980194 112.48556976 -236.12339783 111.94889832 C-234.42961367 110.28966752 -232.71959961 108.64844542 -231.0078125 107.0078125 C-229.30317941 105.35312499 -227.60205278 103.69494504 -225.90293884 102.03459167 C-224.84518276 101.0032617 -223.78356779 99.97587193 -222.7177887 98.95283508 C-219.97661589 96.34814995 -219.97661589 96.34814995 -217.9453125 93.1953125 C-216.2953125 93.1953125 -214.6453125 93.1953125 -212.9453125 93.1953125 C-212.4503125 91.7103125 -212.4503125 91.7103125 -211.9453125 90.1953125 C-211.2853125 90.1953125 -210.6253125 90.1953125 -209.9453125 90.1953125 C-209.6565625 89.5765625 -209.3678125 88.9578125 -209.0703125 88.3203125 C-207.9453125 86.1953125 -207.9453125 86.1953125 -205.9453125 84.1953125 C-203.3203125 84.0703125 -203.3203125 84.0703125 -200.9453125 84.1953125 C-200.9453125 83.5353125 -200.9453125 82.8753125 -200.9453125 82.1953125 C-199.6253125 82.1953125 -198.3053125 82.1953125 -196.9453125 82.1953125 C-196.9453125 81.5353125 -196.9453125 80.8753125 -196.9453125 80.1953125 C-193.64180636 77.07533448 -192.62121417 76.1953125 -187.9453125 76.1953125 C-187.4503125 74.7103125 -187.4503125 74.7103125 -186.9453125 73.1953125 C-185.6253125 73.1953125 -184.3053125 73.1953125 -182.9453125 73.1953125 C-182.4503125 71.7103125 -182.4503125 71.7103125 -181.9453125 70.1953125 C-180.62227533 69.8232083 -179.28793315 69.48901077 -177.9453125 69.1953125 C-177.6153125 68.5353125 -177.2853125 67.8753125 -176.9453125 67.1953125 C-173.9753125 67.1953125 -171.0053125 67.1953125 -167.9453125 67.1953125 C-167.9453125 66.5353125 -167.9453125 65.8753125 -167.9453125 65.1953125 C-166.2953125 65.1953125 -164.6453125 65.1953125 -162.9453125 65.1953125 C-162.9453125 64.2053125 -162.9453125 63.2153125 -162.9453125 62.1953125 C-160.3053125 62.1953125 -157.6653125 62.1953125 -154.9453125 62.1953125 C-154.9453125 61.2053125 -154.9453125 60.2153125 -154.9453125 59.1953125 C-151.9753125 59.1953125 -149.0053125 59.1953125 -145.9453125 59.1953125 C-145.9453125 58.2053125 -145.9453125 57.2153125 -145.9453125 56.1953125 C-143.3053125 56.1953125 -140.6653125 56.1953125 -137.9453125 56.1953125 C-137.9453125 55.2053125 -137.9453125 54.2153125 -137.9453125 53.1953125 C-134.3153125 53.1953125 -130.6853125 53.1953125 -126.9453125 53.1953125 C-126.9453125 52.2053125 -126.9453125 51.2153125 -126.9453125 50.1953125 C-124.89453125 49.96744792 -122.84375 49.73958333 -120.79296875 49.51171875 C-118.93391021 49.37644636 -118.93391021 49.37644636 -117.9453125 48.1953125 C-116.25922284 48.12325739 -114.57030591 48.11145182 -112.8828125 48.1328125 C-111.96371094 48.14183594 -111.04460937 48.15085938 -110.09765625 48.16015625 C-109.38738281 48.17175781 -108.67710937 48.18335938 -107.9453125 48.1953125 C-107.9453125 47.2053125 -107.9453125 46.2153125 -107.9453125 45.1953125 C-104.3153125 45.1953125 -100.6853125 45.1953125 -96.9453125 45.1953125 C-96.9453125 44.2053125 -96.9453125 43.2153125 -96.9453125 42.1953125 C-93.9753125 42.1953125 -91.0053125 42.1953125 -87.9453125 42.1953125 C-87.9453125 41.2053125 -87.9453125 40.2153125 -87.9453125 39.1953125 C-84.3153125 39.1953125 -80.6853125 39.1953125 -76.9453125 39.1953125 C-76.9453125 38.2053125 -76.9453125 37.2153125 -76.9453125 36.1953125 C-74.3053125 36.1953125 -71.6653125 36.1953125 -68.9453125 36.1953125 C-68.9453125 35.2053125 -68.9453125 34.2153125 -68.9453125 33.1953125 C-65.9753125 33.1953125 -63.0053125 33.1953125 -59.9453125 33.1953125 C-59.9453125 32.5353125 -59.9453125 31.8753125 -59.9453125 31.1953125 C-56.9753125 31.1953125 -54.0053125 31.1953125 -50.9453125 31.1953125 C-50.9453125 30.2053125 -50.9453125 29.2153125 -50.9453125 28.1953125 C-50.3059375 28.0715625 -49.6665625 27.9478125 -49.0078125 27.8203125 C-48.3271875 27.6140625 -47.6465625 27.4078125 -46.9453125 27.1953125 C-46.6153125 26.5353125 -46.2853125 25.8753125 -45.9453125 25.1953125 C-43.3053125 25.1953125 -40.6653125 25.1953125 -37.9453125 25.1953125 C-37.9453125 24.2053125 -37.9453125 23.2153125 -37.9453125 22.1953125 C-36.2953125 22.1953125 -34.6453125 22.1953125 -32.9453125 22.1953125 C-32.9453125 21.5353125 -32.9453125 20.8753125 -32.9453125 20.1953125 C-31.2953125 20.1953125 -29.6453125 20.1953125 -27.9453125 20.1953125 C-27.9453125 19.2053125 -27.9453125 18.2153125 -27.9453125 17.1953125 C-27.1409375 17.0715625 -26.3365625 16.9478125 -25.5078125 16.8203125 C-24.6621875 16.6140625 -23.8165625 16.4078125 -22.9453125 16.1953125 C-22.6153125 15.5353125 -22.2853125 14.8753125 -21.9453125 14.1953125 C-21.2853125 14.1953125 -20.6253125 14.1953125 -19.9453125 14.1953125 C-19.6153125 13.2053125 -19.2853125 12.2153125 -18.9453125 11.1953125 C-17.2953125 11.1953125 -15.6453125 11.1953125 -13.9453125 11.1953125 C-13.6153125 10.2053125 -13.2853125 9.2153125 -12.9453125 8.1953125 C-12.2853125 8.1953125 -11.6253125 8.1953125 -10.9453125 8.1953125 C-10.9453125 7.5353125 -10.9453125 6.8753125 -10.9453125 6.1953125 C-9.2953125 6.1953125 -7.6453125 6.1953125 -5.9453125 6.1953125 C-5.6565625 5.5765625 -5.3678125 4.9578125 -5.0703125 4.3203125 C-2.93932448 0.2951129 -2.93932448 0.2951129 0 0 Z " fill="#8FC057" transform="translate(430.9453125,87.8046875)"/>
<path d="M0 0 C39.27 0 78.54 0 119 0 C119 0.99 119 1.98 119 3 C119.99 3 120.98 3 122 3 C122 33.69 122 64.38 122 96 C119.36 96 116.72 96 114 96 C113.67 96.99 113.34 97.98 113 99 C110.36 99 107.72 99 105 99 C104.67 99.99 104.34 100.98 104 102 C101.36 102 98.72 102 96 102 C96 102.66 96 103.32 96 104 C94.865625 104.12375 93.73125 104.2475 92.5625 104.375 C90.7990625 104.684375 90.7990625 104.684375 89 105 C88.67 105.66 88.34 106.32 88 107 C85.36 107 82.72 107 80 107 C79.67 107.99 79.34 108.98 79 110 C77.35 110 75.7 110 74 110 C74 110.99 74 111.98 74 113 C71.69 113 69.38 113 67 113 C66.67 113.99 66.34 114.98 66 116 C64.68 116 63.36 116 62 116 C61.67 116.99 61.34 117.98 61 119 C58.890625 119.7734375 58.890625 119.7734375 56.25 120.375 C51.53439907 121.63786749 49.28759053 123.32563411 46 127 C43.75 127.6875 43.75 127.6875 42 128 C41.67 128.66 41.34 129.32 41 130 C40.34 130 39.68 130 39 130 C39 130.99 39 131.98 39 133 C37.68 133 36.36 133 35 133 C35 133.66 35 134.32 35 135 C34.34 135 33.68 135 33 135 C32.74863281 135.59554687 32.49726563 136.19109375 32.23828125 136.8046875 C29.75164276 141.21317592 24.94997793 144.22907849 20.3125 146.0625 C17.13961795 147.34880353 15.37072334 149.56848888 13 152 C10.6875 153.3125 10.6875 153.3125 9 154 C9.165 154.845625 9.33 155.69125 9.5 156.5625 C8.813653 161.28113564 6.50732516 162.345681 2.89453125 165.19921875 C0.22558061 167.73609761 -0.12428779 170.49715117 -1 174 C-3.43678265 175.88850655 -4.89413052 177 -8 177 C-8 178.65 -8 180.3 -8 182 C-8.66 182 -9.32 182 -10 182 C-10 183.98 -10 185.96 -10 188 C-10.99 188 -11.98 188 -13 188 C-13 189.65 -13 191.3 -13 193 C-13.66 193 -14.32 193 -15 193 C-15 194.98 -15 196.96 -15 199 C-15.99 199 -16.98 199 -18 199 C-18 201.31 -18 203.62 -18 206 C-18.99 206 -19.98 206 -21 206 C-21 208.64 -21 211.28 -21 214 C-21.99 214 -22.98 214 -24 214 C-24 217.63 -24 221.26 -24 225 C-24.99 225 -25.98 225 -27 225 C-27 228.63 -27 232.26 -27 236 C-27.66 236 -28.32 236 -29 236 C-29 238.97 -29 241.94 -29 245 C-42.53 245 -56.06 245 -70 245 C-70 245.99 -70 246.98 -70 248 C-84.85 248 -99.7 248 -115 248 C-115 247.01 -115 246.02 -115 245 C-115.99 245 -116.98 245 -118 245 C-118 244.34 -118 243.68 -118 243 C-119.32 243 -120.64 243 -122 243 C-122 204.06 -122 165.12 -122 125 C-121.01 125 -120.02 125 -119 125 C-119 124.01 -119 123.02 -119 122 C-117.35 122 -115.7 122 -114 122 C-114 121.01 -114 120.02 -114 119 C-78.03 119 -42.06 119 -5 119 C-5 81.38 -5 43.76 -5 5 C-3.68 4.34 -2.36 3.68 -1 3 C-0.67 2.01 -0.34 1.02 0 0 Z " fill="#0A673A" transform="translate(179,29)"/>
<path d="M0 0 C12.87 0 25.74 0 39 0 C39 1.65 39 3.3 39 5 C39.99 5 40.98 5 42 5 C42 6.32 42 7.64 42 9 C42.99 9 43.98 9 45 9 C46.25664978 11.90600261 47 13.79604584 47 17 C47.66 17 48.32 17 49 17 C50.85776765 20.13498292 51.20140476 22.37471432 51 26 C52.32 26.33 53.64 26.66 55 27 C55.185625 27.9590625 55.185625 27.9590625 55.375 28.9375 C55.58125 29.618125 55.7875 30.29875 56 31 C56.66 31.33 57.32 31.66 58 32 C58 33.98 58 35.96 58 38 C58.99 38 59.98 38 61 38 C61.45375 39.11375 61.9075 40.2275 62.375 41.375 C63.72465986 44.96199008 63.72465986 44.96199008 66 47 C66 48.32 66 49.64 66 51 C66.99 51 67.98 51 69 51 C69.495 54.96 69.495 54.96 70 59 C70.66 59 71.32 59 72 59 C74 62 74 62 74 65 C75.32 65 76.64 65 78 65 C78.33 63.02 78.66 61.04 79 59 C79.66 59 80.32 59 81 59 C81.33 56.69 81.66 54.38 82 52 C82.66 52 83.32 52 84 52 C84.33 51.01 84.66 50.02 85 49 C85.66 49 86.32 49 87 49 C87 47.68 87 46.36 87 45 C87.99 45 88.98 45 90 45 C90 43.68 90 42.36 90 41 C90.66 41 91.32 41 92 41 C92.33 39.68 92.66 38.36 93 37 C93.66 37 94.32 37 95 37 C95 35.02 95 33.04 95 31 C95.66 31 96.32 31 97 31 C97 29.68 97 28.36 97 27 C97.66 27 98.32 27 99 27 C99 26.34 99 25.68 99 25 C99.99 25 100.98 25 102 25 C102 23.02 102 21.04 102 19 C102.66 19 103.32 19 104 19 C104.495 17.515 104.495 17.515 105 16 C105.66 16 106.32 16 107 16 C107.33 14.02 107.66 12.04 108 10 C108.66 10 109.32 10 110 10 C110.0825 9.46375 110.165 8.9275 110.25 8.375 C111 6 111 6 115 0 C127.21 0 139.42 0 152 0 C152 47.52 152 95.04 152 144 C139.46 144 126.92 144 114 144 C114 119.25 114 94.5 114 69 C113.01 69 112.02 69 111 69 C111 69.66 111 70.32 111 71 C110.34 71 109.68 71 109 71 C109 71.99 109 72.98 109 74 C108.34 74 107.68 74 107 74 C107 75.98 107 77.96 107 80 C105.515 80.495 105.515 80.495 104 81 C103.64587656 82.32796291 103.31478446 83.66216607 103 85 C102.505 85.474375 102.01 85.94875 101.5 86.4375 C99.53426922 88.48513623 99.37331439 90.23747349 99 93 C98.34 93 97.68 93 97 93 C97 93.66 97 94.32 97 95 C96.34 95 95.68 95 95 95 C95.04125 95.763125 95.0825 96.52625 95.125 97.3125 C95 100 95 100 93 103 C92.34 103 91.68 103 91 103 C91 104.32 91 105.64 91 107 C90.01 107.495 90.01 107.495 89 108 C88.505 109.485 88.505 109.485 88 111 C79.75 111 71.5 111 63 111 C61 106 61 106 61 102 C60.01 101.67 59.02 101.34 58 101 C57.67 99.35 57.34 97.7 57 96 C56.01 95.67 55.02 95.34 54 95 C53.6278958 93.67696283 53.29369827 92.34262065 53 91 C52.01 90.505 52.01 90.505 51 90 C51 88.68 51 87.36 51 86 C50.34 86 49.68 86 49 86 C49 84.35 49 82.7 49 81 C47.68 80.67 46.36 80.34 45 80 C45 77.69 45 75.38 45 73 C44.01 72.67 43.02 72.34 42 72 C42 71.01 42 70.02 42 69 C41.01 69 40.02 69 39 69 C39 93.75 39 118.5 39 144 C26.13 144 13.26 144 0 144 C0 96.48 0 48.96 0 0 Z " fill="#10683E" transform="translate(518,162)"/>
<path d="M0 0 C17.16 0 34.32 0 52 0 C52 1.98 52 3.96 52 6 C52.66 6 53.32 6 54 6 C54.12375 7.093125 54.2475 8.18625 54.375 9.3125 C54.75464801 13.07381802 54.75464801 13.07381802 57 16 C57.125 18.6875 57.125 18.6875 57 21 C57.99 21 58.98 21 60 21 C60 23.31 60 25.62 60 28 C60.99 28 61.98 28 63 28 C63 29.98 63 31.96 63 34 C63.99 34 64.98 34 66 34 C68.03993514 38.92984325 69.40652968 42.57960425 69 48 C69.66 48 70.32 48 71 48 C71.12375 48.969375 71.2475 49.93875 71.375 50.9375 C71.684375 52.4534375 71.684375 52.4534375 72 54 C72.66 54.33 73.32 54.66 74 55 C74 57.31 74 59.62 74 62 C74.99 62 75.98 62 77 62 C77 63.98 77 65.96 77 68 C77.66 68 78.32 68 79 68 C79.33 69.98 79.66 71.96 80 74 C80.66 74 81.32 74 82 74 C82 76.31 82 78.62 82 81 C82.99 81 83.98 81 85 81 C85 82.98 85 84.96 85 87 C85.99 87 86.98 87 88 87 C88 89.64 88 92.28 88 95 C88.66 95 89.32 95 90 95 C90 97.31 90 99.62 90 102 C90.99 102 91.98 102 93 102 C93 104.31 93 106.62 93 109 C93.99 109 94.98 109 96 109 C96 111.31 96 113.62 96 116 C96.99 116 97.98 116 99 116 C99 118.31 99 120.62 99 123 C99.99 123 100.98 123 102 123 C102.185625 124.7015625 102.185625 124.7015625 102.375 126.4375 C102.58125 127.613125 102.7875 128.78875 103 130 C103.66 130.33 104.32 130.66 105 131 C105 132.98 105 134.96 105 137 C105.66 137 106.32 137 107 137 C107.12375 137.969375 107.2475 138.93875 107.375 139.9375 C107.58125 140.948125 107.7875 141.95875 108 143 C108.66 143.33 109.32 143.66 110 144 C110 145.65 110 147.3 110 149 C95.15 149 80.3 149 65 149 C65 147.68 65 146.36 65 145 C64.34 145 63.68 145 63 145 C63 142.69 63 140.38 63 138 C62.01 138 61.02 138 60 138 C60 135.36 60 132.72 60 130 C59.34 130 58.68 130 58 130 C58 127.69 58 125.38 58 123 C36.88 123 15.76 123 -6 123 C-6 124.98 -6 126.96 -6 129 C-6.66 129 -7.32 129 -8 129 C-8 131.97 -8 134.94 -8 138 C-8.99 138 -9.98 138 -11 138 C-11 140.31 -11 142.62 -11 145 C-11.66 145 -12.32 145 -13 145 C-13 146.32 -13 147.64 -13 149 C-26.86 149 -40.72 149 -55 149 C-55 146.36 -55 143.72 -55 141 C-54.01 141 -53.02 141 -52 141 C-52 138.36 -52 135.72 -52 133 C-51.01 133 -50.02 133 -49 133 C-49 130.69 -49 128.38 -49 126 C-48.01 126 -47.02 126 -46 126 C-46 123.69 -46 121.38 -46 119 C-45.34 119 -44.68 119 -44 119 C-44 116.36 -44 113.72 -44 111 C-43.01 111 -42.02 111 -41 111 C-41 108.36 -41 105.72 -41 103 C-40.01 103 -39.02 103 -38 103 C-38 100.69 -38 98.38 -38 96 C-37.01 96 -36.02 96 -35 96 C-35 93.69 -35 91.38 -35 89 C-34.34 89 -33.68 89 -33 89 C-33 87.02 -33 85.04 -33 83 C-32.01 83 -31.02 83 -30 83 C-30 80.69 -30 78.38 -30 76 C-29.34 76 -28.68 76 -28 76 C-28 73.69 -28 71.38 -28 69 C-26.68 69 -25.36 69 -24 69 C-24 66.69 -24 64.38 -24 62 C-23.34 62 -22.68 62 -22 62 C-22 59.69 -22 57.38 -22 55 C-21.34 54.67 -20.68 54.34 -20 54 C-19.835 53.01 -19.67 52.02 -19.5 51 C-19.335 50.01 -19.17 49.02 -19 48 C-18.34 47.67 -17.68 47.34 -17 47 C-16.34227572 43.97065509 -16.34227572 43.97065509 -16 41 C-15.34 41 -14.68 41 -14 41 C-14 38.69 -14 36.38 -14 34 C-13.01 34 -12.02 34 -11 34 C-11 31.69 -11 29.38 -11 27 C-10.01 27 -9.02 27 -8 27 C-8 24.69 -8 22.38 -8 20 C-7.01 20 -6.02 20 -5 20 C-5 17.69 -5 15.38 -5 13 C-4.34 13 -3.68 13 -3 13 C-3 10.36 -3 7.72 -3 5 C-2.01 5 -1.02 5 0 5 C0 3.35 0 1.7 0 0 Z " fill="#95BF5C" transform="translate(1704,157)"/>
<path d="M0 0 C12.54 0 25.08 0 38 0 C38 47.85 38 95.7 38 145 C25.79 145 13.58 145 1 145 C1 142.69 1 140.38 1 138 C-0.98 138.33 -2.96 138.66 -5 139 C-5 139.66 -5 140.32 -5 141 C-5.66 141 -6.32 141 -7 141 C-7 141.66 -7 142.32 -7 143 C-7.63808594 143.12117187 -8.27617188 143.24234375 -8.93359375 143.3671875 C-9.75988281 143.53476562 -10.58617187 143.70234375 -11.4375 143.875 C-12.67306641 144.11863281 -12.67306641 144.11863281 -13.93359375 144.3671875 C-14.95646484 144.68042969 -14.95646484 144.68042969 -16 145 C-16.33 145.66 -16.66 146.32 -17 147 C-26.57 147 -36.14 147 -46 147 C-46.33 146.01 -46.66 145.02 -47 144 C-47.7321875 143.89171875 -48.464375 143.7834375 -49.21875 143.671875 C-55.61225491 142.12737662 -61.95067084 137.06166145 -66 132 C-66.8125 128.6875 -66.8125 128.6875 -67 126 C-67.99 126 -68.98 126 -70 126 C-70 124.35 -70 122.7 -70 121 C-70.99 121 -71.98 121 -73 121 C-73 118.03 -73 115.06 -73 112 C-73.66 112 -74.32 112 -75 112 C-75.04959611 105.86190964 -75.08581249 99.72393707 -75.10986328 93.58569336 C-75.11989427 91.49940966 -75.13352226 89.41313992 -75.15087891 87.3269043 C-75.17525494 84.32076562 -75.18651236 81.31481355 -75.1953125 78.30859375 C-75.20563507 77.38227646 -75.21595764 76.45595917 -75.22659302 75.50157166 C-75.22749151 70.26519432 -74.71440648 65.95635507 -73 61 C-72.34 61 -71.68 61 -71 61 C-70.87625 60.236875 -70.7525 59.47375 -70.625 58.6875 C-70 56 -70 56 -68 53 C-67.01 53 -66.02 53 -65 53 C-64.979375 52.29875 -64.95875 51.5975 -64.9375 50.875 C-63.58057379 46.71375962 -60.7216641 44.24224483 -57 42 C-55.68 42 -54.36 42 -53 42 C-53 41.34 -53 40.68 -53 40 C-51.68 40 -50.36 40 -49 40 C-49 39.34 -49 38.68 -49 38 C-45.7 38 -42.4 38 -39 38 C-39 37.01 -39 36.02 -39 35 C-34.05 35 -29.1 35 -24 35 C-24 35.99 -24 36.98 -24 38 C-20.04 38 -16.08 38 -12 38 C-12 38.66 -12 39.32 -12 40 C-10.35 40 -8.7 40 -7 40 C-7 40.99 -7 41.98 -7 43 C-5.68 43 -4.36 43 -3 43 C-3 43.66 -3 44.32 -3 45 C-2.01 45 -1.02 45 0 45 C0 30.15 0 15.3 0 0 Z " fill="#0E673D" transform="translate(900,162)"/>
<path d="M0 0 C12.54 0 25.08 0 38 0 C38 14.85 38 29.7 38 45 C42.88495525 42.67748574 42.88495525 42.67748574 44 40 C45.65 40 47.3 40 49 40 C49 39.34 49 38.68 49 38 C52.3 38 55.6 38 59 38 C59 37.01 59 36.02 59 35 C64.28 35 69.56 35 75 35 C75.33 35.66 75.66 36.32 76 37 C79.04581269 37.46954261 79.04581269 37.46954261 82.5625 37.625 C83.76003906 37.69976562 84.95757813 37.77453125 86.19140625 37.8515625 C87.11824219 37.90054688 88.04507812 37.94953125 89 38 C89 38.66 89 39.32 89 40 C90.32 40 91.64 40 93 40 C93 40.66 93 41.32 93 42 C93.99 42 94.98 42 96 42 C96 42.66 96 43.32 96 44 C96.61875 44.12375 97.2375 44.2475 97.875 44.375 C100 45 100 45 102 47 C102 47.99 102 48.98 102 50 C102.66 50 103.32 50 104 50 C104 51.65 104 53.3 104 55 C104.99 55 105.98 55 107 55 C107.12375 55.804375 107.2475 56.60875 107.375 57.4375 C107.684375 58.7059375 107.684375 58.7059375 108 60 C108.66 60.33 109.32 60.66 110 61 C115.74807045 75.34949962 113.10228617 93.86479457 113 109 C112.34 109 111.68 109 111 109 C111 112.3 111 115.6 111 119 C110.01 119 109.02 119 108 119 C108.061875 119.845625 108.12375 120.69125 108.1875 121.5625 C107.91771296 126.50859578 106.79446213 130.22181417 103.27734375 133.70703125 C102.04823378 134.74432939 100.79773201 135.75702071 99.5234375 136.73828125 C97.86041556 137.94283829 97.86041556 137.94283829 97 140 C96.01 140 95.02 140 94 140 C94 140.66 94 141.32 94 142 C90.86501708 143.85776765 88.62528568 144.20140476 85 144 C85 145.32 85 146.64 85 148 C75.1 148 65.2 148 55 148 C55 147.01 55 146.02 55 145 C53.02 145 51.04 145 49 145 C49 144.01 49 143.02 49 142 C48.13375 141.814375 48.13375 141.814375 47.25 141.625 C44.97664233 140.99351176 43.0746471 140.11141809 41 139 C41 138.34 41 137.68 41 137 C39.68 137 38.36 137 37 137 C37 139.31 37 141.62 37 144 C24.79 144 12.58 144 0 144 C0 96.48 0 48.96 0 0 Z " fill="#95BF5A" transform="translate(1416,162)"/>
<path d="M0 0 C11.88 0 23.76 0 36 0 C36 0.99 36 1.98 36 3 C39.96 3 43.92 3 48 3 C48 3.66 48 4.32 48 5 C50.31 5 52.62 5 55 5 C55 5.99 55 6.98 55 8 C56.27230469 7.80664062 56.27230469 7.80664062 57.5703125 7.609375 C62.5198326 8.17310166 64.54932954 10.73622601 67.875 14.25 C68.76445313 15.12978516 68.76445313 15.12978516 69.671875 16.02734375 C74 20.46516777 74 20.46516777 74 25 C74.66 25 75.32 25 76 25 C76 28.3 76 31.6 76 35 C76.66 35 77.32 35 78 35 C78 36.98 78 38.96 78 41 C77.34 41 76.68 41 76 41 C76 41.99 76 42.98 76 44 C64.12 44 52.24 44 40 44 C40 43.01 40 42.02 40 41 C39.01 41 38.02 41 37 41 C36.731875 40.236875 36.46375 39.47375 36.1875 38.6875 C35.01804924 36.04084828 34.30099918 34.70444384 32 33 C29.39388923 32.27802838 29.39388923 32.27802838 27 32 C27 31.34 27 30.68 27 30 C20.73 30 14.46 30 8 30 C8 30.66 8 31.32 8 32 C7.01 32.33 6.02 32.66 5 33 C3.66172696 34.66270287 2.32810215 36.32916181 1 38 C0.34 38 -0.32 38 -1 38 C-1 40.31 -1 42.62 -1 45 C-0.01 45 0.98 45 2 45 C2 45.66 2 46.32 2 47 C2.99 47.33 3.98 47.66 5 48 C5 48.99 5 49.98 5 51 C6.65 51 8.3 51 10 51 C10 51.66 10 52.32 10 53 C11.98 53 13.96 53 16 53 C16.33 53.66 16.66 54.32 17 55 C19.35599235 55.46751788 19.35599235 55.46751788 22.0625 55.625 C22.98160156 55.69976562 23.90070313 55.77453125 24.84765625 55.8515625 C25.55792969 55.90054688 26.26820312 55.94953125 27 56 C27 56.66 27 57.32 27 58 C30.3 58 33.6 58 37 58 C37 58.99 37 59.98 37 61 C39.97 61 42.94 61 46 61 C46 61.99 46 62.98 46 64 C48.64 64 51.28 64 54 64 C54.33 64.66 54.66 65.32 55 66 C57.52733235 66.65555119 57.52733235 66.65555119 60 67 C60 67.66 60 68.32 60 69 C61.65 69.33 63.3 69.66 65 70 C65 70.66 65 71.32 65 72 C65.556875 72.061875 66.11375 72.12375 66.6875 72.1875 C69.96412957 73.33874823 71.66587006 75.48159664 74 78 C74.66 78.66 75.32 79.32 76 80 C76 81.32 76 82.64 76 84 C76.66 84 77.32 84 78 84 C78 85.98 78 87.96 78 90 C78.99 90 79.98 90 81 90 C81 99.57 81 109.14 81 119 C80.01 119 79.02 119 78 119 C78 120.98 78 122.96 78 125 C77.01 125 76.02 125 75 125 C75 125.99 75 126.98 75 128 C74.34 128 73.68 128 73 128 C72.938125 128.7425 72.87625 129.485 72.8125 130.25 C71.73066861 133.91158316 70.08574768 134.80569054 67 137 C66.01 137.86625 65.02 138.7325 64 139.625 C61.29749126 141.76448609 59.21754531 142.89684161 56 144 C55.67 144.33 55.34 144.66 55 145 C53.00041636 145.04080783 50.99954746 145.04254356 49 145 C49 145.66 49 146.32 49 147 C45.37 147 41.74 147 38 147 C38 147.99 38 148.98 38 150 C28.1 150 18.2 150 8 150 C8 149.01 8 148.02 8 147 C2.72 147 -2.56 147 -8 147 C-8 146.34 -8 145.68 -8 145 C-10.31 145 -12.62 145 -15 145 C-15 144.01 -15 143.02 -15 142 C-16.32 142 -17.64 142 -19 142 C-19 141.01 -19 140.02 -19 139 C-20.98 139 -22.96 139 -25 139 C-25 138.34 -25 137.68 -25 137 C-25.9075 136.79375 -26.815 136.5875 -27.75 136.375 C-31.80331822 134.6601346 -32.9053028 132.80148751 -35 129 C-35.33 128.01 -35.66 127.02 -36 126 C-36.515625 125.54625 -37.03125 125.0925 -37.5625 124.625 C-39 123 -39 123 -39.1875 120.3125 C-39.125625 119.549375 -39.06375 118.78625 -39 118 C-39.99 118 -40.98 118 -42 118 C-42 113.71 -42 109.42 -42 105 C-41.34 105 -40.68 105 -40 105 C-40 104.34 -40 103.68 -40 103 C-28.45 103 -16.9 103 -5 103 C-5 103.99 -5 104.98 -5 106 C-4.34 106 -3.68 106 -3 106 C-1.67896914 107.72093476 -0.5652041 109.53298055 0.5859375 111.37109375 C2.29145802 113.33574032 3.47021342 113.61784075 6 114 C6 114.66 6 115.32 6 116 C8.64 116 11.28 116 14 116 C14 116.66 14 117.32 14 118 C20.6 118 27.2 118 34 118 C34 117.34 34 116.68 34 116 C34.639375 115.87625 35.27875 115.7525 35.9375 115.625 C36.618125 115.41875 37.29875 115.2125 38 115 C38.33 114.34 38.66 113.68 39 113 C39.99 112.67 40.98 112.34 42 112 C42.33 109.36 42.66 106.72 43 104 C42.01 104 41.02 104 40 104 C39.401875 103.360625 38.80375 102.72125 38.1875 102.0625 C35.49796404 99.52665181 33.61713638 99.32883058 30 99 C30 98.01 30 97.02 30 96 C26.7 96 23.4 96 20 96 C20 95.01 20 94.02 20 93 C17.36 93 14.72 93 12 93 C12 92.01 12 91.02 12 90 C9.36 90 6.72 90 4 90 C4 89.34 4 88.68 4 88 C1.03 88 -1.94 88 -5 88 C-5 87.01 -5 86.02 -5 85 C-7.64 85 -10.28 85 -13 85 C-13 84.34 -13 83.68 -13 83 C-14.98 83 -16.96 83 -19 83 C-19 82.01 -19 81.02 -19 80 C-19.99 80 -20.98 80 -22 80 C-22 79.34 -22 78.68 -22 78 C-22.99 78 -23.98 78 -25 78 C-25 77.01 -25 76.02 -25 75 C-25.5775 74.9175 -26.155 74.835 -26.75 74.75 C-29.69632751 73.76789083 -31.03027912 72.37724934 -33 70 C-33.35169068 68.67139075 -33.68770276 67.33841672 -34 66 C-34.99 65.34 -35.98 64.68 -37 64 C-37.1875 60.875 -37.1875 60.875 -37 58 C-37.66 58 -38.32 58 -39 58 C-39 49.09 -39 40.18 -39 31 C-38.34 31 -37.68 31 -37 31 C-37 28.69 -37 26.38 -37 24 C-36.34 24 -35.68 24 -35 24 C-35 23.01 -35 22.02 -35 21 C-34.34 21 -33.68 21 -33 21 C-32.7525 20.38125 -32.505 19.7625 -32.25 19.125 C-30.76259631 16.59641373 -29.56321991 16.28160996 -27 15 C-25.90833725 13.06669397 -25.90833725 13.06669397 -25 11 C-23.75 9.25 -23.75 9.25 -22 8 C-18.8125 7.8125 -18.8125 7.8125 -16 8 C-16 7.01 -16 6.02 -16 5 C-14.02 5 -12.04 5 -10 5 C-10 4.34 -10 3.68 -10 3 C-6.7 3 -3.4 3 0 3 C0 2.01 0 1.02 0 0 Z " fill="#95C05B" transform="translate(1061,160)"/>
<path d="M0 0 C13.2 0 26.4 0 40 0 C40 0.99 40 1.98 40 3 C42.64 3 45.28 3 48 3 C48 3.66 48 4.32 48 5 C49.65 5 51.3 5 53 5 C53.495 6.485 53.495 6.485 54 8 C55.32 8 56.64 8 58 8 C58 8.66 58 9.32 58 10 C58.66 10 59.32 10 60 10 C60 10.66 60 11.32 60 12 C61.32 12.66 62.64 13.32 64 14 C64 15.32 64 16.64 64 18 C64.66 18 65.32 18 66 18 C69.11997802 21.30350614 70 22.32409833 70 27 C70.99 27 71.98 27 73 27 C73.12375 27.969375 73.2475 28.93875 73.375 29.9375 C73.684375 31.4534375 73.684375 31.4534375 74 33 C74.66 33.33 75.32 33.66 76 34 C76.07420211 38.07502794 76.1286257 42.14979392 76.16479492 46.2253418 C76.17987397 47.61147919 76.2003405 48.99756894 76.22631836 50.38354492 C76.26273716 52.37658146 76.27813018 54.36996723 76.29296875 56.36328125 C76.3086792 57.56251221 76.32438965 58.76174316 76.34057617 59.99731445 C76 63 76 63 74.89587402 64.66638184 C72.06101118 66.66051464 69.76404993 66.35936639 66.32543945 66.34057617 C65.652005 66.34101425 64.97857056 66.34145233 64.284729 66.34190369 C62.06061731 66.33981501 59.83726112 66.3164815 57.61328125 66.29296875 C56.07057609 66.28737305 54.5278656 66.28310283 52.9851532 66.28010559 C48.92602809 66.26865471 44.86722534 66.23918569 40.80822754 66.20599365 C36.66581585 66.17529787 32.52335203 66.16160132 28.38085938 66.14648438 C20.25375836 66.114316 12.12691929 66.06311698 4 66 C4 68.31 4 70.62 4 73 C4.99 73 5.98 73 7 73 C7.66 75.64 8.32 78.28 9 81 C9.66 81 10.32 81 11 81 C11 81.99 11 82.98 11 84 C17.27 84 23.54 84 30 84 C30 83.34 30 82.68 30 82 C31.32 82 32.64 82 34 82 C34.33 80.35 34.66 78.7 35 77 C46.88 77 58.76 77 71 77 C71 77.66 71 78.32 71 79 C71.99 79 72.98 79 74 79 C74 80.98 74 82.96 74 85 C73.01 85 72.02 85 71 85 C71 86.32 71 87.64 71 89 C70.01 89.495 70.01 89.495 69 90 C68.37477887 91.29307098 67.7974716 92.60964125 67.25 93.9375 C65.66671396 97.28928667 65.38717936 97.83298145 61.8125 99.375 C60.4203125 99.684375 60.4203125 99.684375 59 100 C58.67 100.66 58.34 101.32 58 102 C56.35 102 54.7 102 53 102 C53 102.99 53 103.98 53 105 C48.50343896 107.24828052 44.92127034 107.16682272 40 107 C40 107.99 40 108.98 40 110 C27.79 110 15.58 110 3 110 C3 109.01 3 108.02 3 107 C0.36 107 -2.28 107 -5 107 C-5 106.34 -5 105.68 -5 105 C-6.98 105 -8.96 105 -11 105 C-11 104.01 -11 103.02 -11 102 C-11.7425 102.0825 -12.485 102.165 -13.25 102.25 C-16 102 -16 102 -18.3125 100.125 C-20 98 -20 98 -20 96 C-20.99 96 -21.98 96 -23 96 C-23 95.01 -23 94.02 -23 93 C-23.928125 92.9071875 -23.928125 92.9071875 -24.875 92.8125 C-27 92 -27 92 -28.25 89.75 C-28.99453489 87.02003872 -29.1607411 84.81296916 -29 82 C-29.66 82 -30.32 82 -31 82 C-31 79.36 -31 76.72 -31 74 C-31.99 74 -32.98 74 -34 74 C-34 60.8 -34 47.6 -34 34 C-33.01 34 -32.02 34 -31 34 C-31 32.35 -31 30.7 -31 29 C-30.34 29 -29.68 29 -29 29 C-29.061875 28.236875 -29.12375 27.47375 -29.1875 26.6875 C-28.95954926 23.42020601 -28.27198304 23.18459908 -26 21 C-25.7525 20.0925 -25.505 19.185 -25.25 18.25 C-23.53288902 13.78551146 -20.83464053 10.8389506 -17 8 C-14.0625 7.5625 -14.0625 7.5625 -12 8 C-12 7.34 -12 6.68 -12 6 C-10.68 6 -9.36 6 -8 6 C-8 5.01 -8 4.02 -8 3 C-5.36 3 -2.72 3 0 3 C0 2.01 0 1.02 0 0 Z " fill="#95BF5C" transform="translate(1574,199)"/>
<path d="M0 0 C12.54 0 25.08 0 38 0 C38.495 1.485 38.495 1.485 39 3 C41.64 3 44.28 3 47 3 C47 3.99 47 4.98 47 6 C48.65 6.33 50.3 6.66 52 7 C52 7.66 52 8.32 52 9 C52.680625 9.04125 53.36125 9.0825 54.0625 9.125 C58.14557665 10.3412356 61.3060672 12.6849876 64 16 C64 17.32 64 18.64 64 20 C64.99 20.99 64.99 20.99 66 22 C68 24 68 24 68 28 C69.485 28.495 69.485 28.495 71 29 C71 30.65 71 32.3 71 34 C71.66 34 72.32 34 73 34 C73 37.96 73 41.92 73 46 C73.99 46 74.98 46 76 46 C76 51.94 76 57.88 76 64 C75.01 64 74.02 64 73 64 C73 64.66 73 65.32 73 66 C49.9 66 26.8 66 3 66 C3 68.97 3 71.94 3 75 C3.99 75 4.98 75 6 75 C6 76.65 6 78.3 6 80 C6.66 80 7.32 80 8 80 C8 80.66 8 81.32 8 82 C8.66 82 9.32 82 10 82 C10 82.99 10 83.98 10 85 C16.6 85 23.2 85 30 85 C30.495 83.02 30.495 83.02 31 81 C32.54589844 78.77441406 32.54589844 78.77441406 35 77 C37.8896512 76.6508995 40.3859271 76.5318438 43.265625 76.609375 C44.05902283 76.61503479 44.85242065 76.62069458 45.66986084 76.62652588 C48.19719473 76.64886853 50.72309665 76.69905824 53.25 76.75 C54.96612532 76.77006786 56.68227292 76.78831813 58.3984375 76.8046875 C62.5995078 76.84872605 66.79951135 76.91773674 71 77 C71 77.66 71 78.32 71 79 C71.66 79 72.32 79 73 79 C73 81.64 73 84.28 73 87 C72.01 87 71.02 87 70 87 C70 88.32 70 89.64 70 91 C68.05874656 92.73473712 66.05727132 94.4045651 64 96 C63.67 96.66 63.34 97.32 63 98 C61.68 98 60.36 98 59 98 C58.505 99.485 58.505 99.485 58 101 C57.01 101.495 57.01 101.495 56 102 C55.505 103.485 55.505 103.485 55 105 C53.02 105 51.04 105 49 105 C49 105.66 49 106.32 49 107 C45.7 107 42.4 107 39 107 C39 107.99 39 108.98 39 110 C26.79 110 14.58 110 2 110 C1.67 109.34 1.34 108.68 1 108 C-0.89533342 107.53476937 -0.89533342 107.53476937 -3.0625 107.375 C-5.0115625 107.189375 -5.0115625 107.189375 -7 107 C-7 106.01 -7 105.02 -7 104 C-8.65 104 -10.3 104 -12 104 C-12 103.01 -12 102.02 -12 101 C-12.70125 101.12375 -13.4025 101.2475 -14.125 101.375 C-17.91949854 100.88006541 -19.05854135 99.23888369 -21.47265625 96.41015625 C-23.2666736 94.75378729 -24.62153809 94.40408278 -27 94 C-27.12375 93.195625 -27.2475 92.39125 -27.375 91.5625 C-27.58125 90.716875 -27.7875 89.87125 -28 89 C-28.66 88.67 -29.32 88.34 -30 88 C-30 86.35 -30 84.7 -30 83 C-30.66 83 -31.32 83 -32 83 C-32 80.03 -32 77.06 -32 74 C-32.99 74 -33.98 74 -35 74 C-35 61.46 -35 48.92 -35 36 C-34.01 36 -33.02 36 -32 36 C-32 33.69 -32 31.38 -32 29 C-31.34 29 -30.68 29 -30 29 C-29.67 26.69 -29.34 24.38 -29 22 C-27.68 21.67 -26.36 21.34 -25 21 C-25.061875 20.071875 -25.12375 19.14375 -25.1875 18.1875 C-25 15 -25 15 -23.625 13.125 C-22 12 -22 12 -20 12 C-20 11.34 -20 10.68 -20 10 C-19.34 10 -18.68 10 -18 10 C-18 9.34 -18 8.68 -18 8 C-16.35 8 -14.7 8 -13 8 C-13 7.01 -13 6.02 -13 5 C-11.35 5 -9.7 5 -8 5 C-8 4.34 -8 3.68 -8 3 C-5.36 3 -2.72 3 0 3 C0 2.01 0 1.02 0 0 Z " fill="#0F673D" transform="translate(731,199)"/>
<path d="M0 0 C12.87 0 25.74 0 39 0 C39 0.99 39 1.98 39 3 C41.64 3 44.28 3 47 3 C47 3.66 47 4.32 47 5 C48.65 5 50.3 5 52 5 C52 5.99 52 6.98 52 8 C52.70125 8.04125 53.4025 8.0825 54.125 8.125 C58.19249648 9.36293371 60.43790132 11.66038582 63 15 C64.16612591 17.29027129 65.05973883 19.60233402 66 22 C66.66 22.33 67.32 22.66 68 23 C68 24.98 68 26.96 68 29 C68.99 29 69.98 29 71 29 C71 31.97 71 34.94 71 38 C70.01 38 69.02 38 68 38 C68 38.99 68 39.98 68 41 C57.11 41 46.22 41 35 41 C34.34 38.69 33.68 36.38 33 34 C31.82441332 31.59696445 31.82441332 31.59696445 30 30 C27.40144267 29.1957792 27.40144267 29.1957792 25 29 C25 28.34 25 27.68 25 27 C21.7 27 18.4 27 15 27 C15 27.66 15 28.32 15 29 C13.35 29 11.7 29 10 29 C10 29.99 10 30.98 10 32 C8.02 32.66 6.04 33.32 4 34 C4 35.98 4 37.96 4 40 C3.34 40 2.68 40 2 40 C2.11021595 44.54215151 2.24076847 49.08349975 2.375 53.625 C2.4059375 54.91019531 2.436875 56.19539063 2.46875 57.51953125 C2.52675781 59.38544922 2.52675781 59.38544922 2.5859375 61.2890625 C2.6173584 62.43068848 2.6487793 63.57231445 2.68115234 64.74853516 C3.01213269 68.1237237 3.69906804 70.87163719 5 74 C5.99 74.495 5.99 74.495 7 75 C7 75.99 7 76.98 7 78 C7.99 78 8.98 78 10 78 C10 78.66 10 79.32 10 80 C11.98 80 13.96 80 16 80 C16 80.99 16 81.98 16 83 C18.31 83 20.62 83 23 83 C23 82.34 23 81.68 23 81 C24.3921875 80.5978125 24.3921875 80.5978125 25.8125 80.1875 C28.79513615 79.07632183 30.11865457 78.47545451 32 76 C32.495 74.515 32.495 74.515 33 73 C33.66 72.67 34.32 72.34 35 72 C35.495 70.515 35.495 70.515 36 69 C46.89 69 57.78 69 69 69 C69 69.99 69 70.98 69 72 C69.66 72 70.32 72 71 72 C71 74.64 71 77.28 71 80 C70.01 80 69.02 80 68 80 C68 82.31 68 84.62 68 87 C67.01 87.495 67.01 87.495 66 88 C65.26924352 90.3140622 64.59861742 92.64828869 64 95 C63.01 95 62.02 95 61 95 C61 95.66 61 96.32 61 97 C59.57421875 98.25390625 59.57421875 98.25390625 57.6875 99.5625 C56.76517578 100.21412109 56.76517578 100.21412109 55.82421875 100.87890625 C54 102 54 102 51 103 C50.67 103.66 50.34 104.32 50 105 C48.35 105 46.7 105 45 105 C45 105.99 45 106.98 45 108 C42.36 108 39.72 108 37 108 C36.505 109.485 36.505 109.485 36 111 C24.12 111 12.24 111 0 111 C0 109.68 0 108.36 0 107 C-2.64 107 -5.28 107 -8 107 C-8 106.01 -8 105.02 -8 104 C-8.71800781 104.09152344 -9.43601562 104.18304688 -10.17578125 104.27734375 C-14.05413435 103.89648197 -15.42176197 102.24455458 -18.1875 99.5625 C-21.32725447 96.40500228 -21.32725447 96.40500228 -25 94 C-25.83585019 91.96945295 -26.46630271 89.90783132 -27.12109375 87.8125 C-27.41113281 87.214375 -27.70117188 86.61625 -28 86 C-28.99 85.67 -29.98 85.34 -31 85 C-31 83.35 -31 81.7 -31 80 C-31.66 80 -32.32 80 -33 80 C-33 76.7 -33 73.4 -33 70 C-33.99 70 -34.98 70 -36 70 C-36 60.43 -36 50.86 -36 41 C-35.34 41 -34.68 41 -34 41 C-34 37.37 -34 33.74 -34 30 C-33.01 29.67 -32.02 29.34 -31 29 C-31 27.35 -31 25.7 -31 24 C-30.01 23.67 -29.02 23.34 -28 23 C-28 22.34 -28 21.68 -28 21 C-27.34 21 -26.68 21 -26 21 C-25.90203125 20.26394531 -25.8040625 19.52789062 -25.703125 18.76953125 C-24.91111632 15.64989705 -23.84488668 14.10572789 -21.75 11.6875 C-21.16734375 10.99011719 -20.5846875 10.29273438 -19.984375 9.57421875 C-17.50263979 7.60544062 -16.08991481 7.68568108 -13 8 C-13 7.01 -13 6.02 -13 5 C-11.35 5 -9.7 5 -8 5 C-8 4.34 -8 3.68 -8 3 C-5.36 3 -2.72 3 0 3 C0 2.01 0 1.02 0 0 Z " fill="#95C15B" transform="translate(1189,199)"/>
<path d="M0 0 C9.9 0 19.8 0 30 0 C30.33 0.99 30.66 1.98 31 3 C33.01508358 3.73323796 33.01508358 3.73323796 35 4 C35 5.98 35 7.96 35 10 C35.78375 9.505 36.5675 9.01 37.375 8.5 C40 7 40 7 42 7 C42 6.34 42 5.68 42 5 C42.639375 4.87625 43.27875 4.7525 43.9375 4.625 C44.618125 4.41875 45.29875 4.2125 46 4 C46.33 3.34 46.66 2.68 47 2 C49.97 2 52.94 2 56 2 C56 1.34 56 0.68 56 0 C61.94 0 67.88 0 74 0 C74 0.66 74 1.32 74 2 C74.66 2 75.32 2 76 2 C76 12.23 76 22.46 76 33 C62.375 33.375 62.375 33.375 58.11083984 33.47802734 C56.98887207 33.5136377 55.8669043 33.54924805 54.7109375 33.5859375 C52.99849854 33.63306885 52.99849854 33.63306885 51.25146484 33.68115234 C47.86307433 34.01342731 45.12989541 34.66402011 42 36 C40.56076801 38.50995496 40.56076801 38.50995496 40 41 C39.34 41 38.68 41 38 41 C38 63.11 38 85.22 38 108 C25.46 108 12.92 108 0 108 C0 72.36 0 36.72 0 0 Z " fill="#96C15C" transform="translate(1273,199)"/>
<path d="M0 0 C12.21 0 24.42 0 37 0 C37.04512942 14.29040421 37.08184608 28.58076133 37.10362434 42.87122059 C37.11407518 49.5063777 37.12825811 56.14148366 37.15087891 62.77661133 C37.17256089 69.17619519 37.18455883 75.57572977 37.18975449 81.97534752 C37.1934586 84.42065902 37.20069149 86.86596772 37.21146011 89.31125832 C37.22591321 92.72815472 37.22798053 96.14484568 37.22705078 99.56176758 C37.23424133 100.57956299 37.24143188 101.5973584 37.24884033 102.64599609 C37.246091 103.57567703 37.24334167 104.50535797 37.24050903 105.46321106 C37.24235262 106.27162351 37.24419621 107.08003595 37.24609566 107.91294575 C37 110 37 110 35 113 C23.45 113 11.9 113 0 113 C0 75.71 0 38.42 0 0 Z " fill="#94BC58" transform="translate(1842,192)"/>
<path d="M0 0 C11.22 0 22.44 0 34 0 C34 35.64 34 71.28 34 108 C21.79 108 9.58 108 -3 108 C-3 73.35 -3 38.7 -3 3 C-2.01 2.67 -1.02 2.34 0 2 C0 1.34 0 0.68 0 0 Z " fill="#95C05B" transform="translate(1360,199)"/>
<path d="M0 0 C0.7027002 -0.00191345 1.40540039 -0.0038269 2.12939453 -0.00579834 C3.61556354 -0.00715975 5.10174445 -0.00346632 6.58789062 0.00488281 C8.86615646 0.01558346 11.14363377 0.00498661 13.421875 -0.0078125 C14.86458508 -0.0064909 16.30729466 -0.00392849 17.75 0 C19.06742188 0.00225586 20.38484375 0.00451172 21.7421875 0.00683594 C24.875 0.265625 24.875 0.265625 26.875 2.265625 C27.12109566 4.16716194 27.12109566 4.16716194 27.11550903 6.53030396 C27.11825836 7.42495361 27.12100769 8.31960327 27.12384033 9.24136353 C27.11664978 10.22535126 27.10945923 11.20933899 27.10205078 12.22314453 C27.10234283 13.25731506 27.10263489 14.2914856 27.10293579 15.35699463 C27.10153845 18.78755988 27.08595817 22.21791002 27.0703125 25.6484375 C27.06658381 28.02212404 27.06373616 30.39581211 27.06173706 32.76950073 C27.05408928 39.02655259 27.03443096 45.28351207 27.0123291 51.54052734 C26.9918953 57.92153676 26.98274063 64.30256107 26.97265625 70.68359375 C26.95118614 83.21098469 26.91599468 95.73828272 26.875 108.265625 C14.995 108.265625 3.115 108.265625 -9.125 108.265625 C-9.17011398 94.47948541 -9.20683708 80.69339453 -9.22862434 66.90719795 C-9.23907904 60.50630077 -9.25326892 54.10545654 -9.27587891 47.70458984 C-9.29754725 41.53194531 -9.30955591 35.35935183 -9.31475449 29.18667221 C-9.31846107 26.8270576 -9.32569867 24.46744591 -9.33646011 22.10785294 C-9.35089516 18.81288782 -9.3529813 15.51813597 -9.35205078 12.22314453 C-9.35924133 11.2391568 -9.36643188 10.25516907 -9.37384033 9.24136353 C-9.371091 8.34671387 -9.36834167 7.45206421 -9.36550903 6.53030396 C-9.36735262 5.75046709 -9.36919621 4.97063023 -9.37109566 4.16716194 C-8.70123132 -1.00875951 -4.11957988 0.00705408 0 0 Z " fill="#10663D" transform="translate(973.125,198.734375)"/>
<path d="M0 0 C1.65 0 3.3 0 5 0 C5 12.21 5 24.42 5 37 C3.35 37 1.7 37 0 37 C0 37.99 0 38.98 0 40 C-26.4 40 -52.8 40 -80 40 C-80 38.35 -80 36.7 -80 35 C-80.99 35 -81.98 35 -83 35 C-83 34.01 -83 33.02 -83 32 C-79.37 32 -75.74 32 -72 32 C-72 31.01 -72 30.02 -72 29 C-70.35 29 -68.7 29 -67 29 C-67 28.01 -67 27.02 -67 26 C-66.195625 25.87625 -65.39125 25.7525 -64.5625 25.625 C-63.716875 25.41875 -62.87125 25.2125 -62 25 C-61.67 24.34 -61.34 23.68 -61 23 C-59.33333333 22.66666667 -57.66666667 22.33333333 -56 22 C-55.67 21.34 -55.34 20.68 -55 20 C-53.35 20 -51.7 20 -50 20 C-50 19.01 -50 18.02 -50 17 C-48.02 17 -46.04 17 -44 17 C-44 16.34 -44 15.68 -44 15 C-41.36 15 -38.72 15 -36 15 C-36 14.01 -36 13.02 -36 12 C-33.03 12 -30.06 12 -27 12 C-27 11.01 -27 10.02 -27 9 C-25.865625 8.87625 -24.73125 8.7525 -23.5625 8.625 C-22.386875 8.41875 -21.21125 8.2125 -20 8 C-19.67 7.34 -19.34 6.68 -19 6 C-15.7 6 -12.4 6 -9 6 C-9 5.01 -9 4.02 -9 3 C-6.03 3 -3.06 3 0 3 C0 2.01 0 1.02 0 0 Z " fill="#126A3F" transform="translate(296,358)"/>
<path d="M0 0 C2.72977064 -0.08126109 5.4571017 -0.14061663 8.1875 -0.1875 C8.95642578 -0.21263672 9.72535156 -0.23777344 10.51757812 -0.26367188 C15.15260383 -0.32335032 18.26770105 -0.08905704 22 3 C22 3.66 22 4.32 22 5 C22.99 5.33 23.98 5.66 25 6 C25 7.98 25 9.96 25 12 C25.99 12 26.98 12 28 12 C28 19.26 28 26.52 28 34 C27.34 34 26.68 34 26 34 C26 36.97 26 39.94 26 43 C25.01 43 24.02 43 23 43 C23 44.65 23 46.3 23 48 C19.535 48.495 19.535 48.495 16 49 C16 49.99 16 50.98 16 52 C12.37 52 8.74 52 5 52 C5 51.01 5 50.02 5 49 C2.36 49 -0.28 49 -3 49 C-4.76462683 45.91190305 -5 44.76687864 -5 41 C-5.99 41 -6.98 41 -8 41 C-8 31.1 -8 21.2 -8 11 C-7.34 11 -6.68 11 -6 11 C-5.87625 10.236875 -5.7525 9.47375 -5.625 8.6875 C-5 6 -5 6 -3 3 C-2.01 3 -1.02 3 0 3 C0 2.01 0 1.02 0 0 Z " fill="#FCFDFB" transform="translate(1463,228)"/>
<path d="M0 0 C3.96 0 7.92 0 12 0 C12 0.66 12 1.32 12 2 C13.98 2 15.96 2 18 2 C18 2.99 18 3.98 18 5 C18.99 5 19.98 5 21 5 C21 5.66 21 6.32 21 7 C21.66 7 22.32 7 23 7 C23 8.65 23 10.3 23 12 C23.99 12 24.98 12 26 12 C26 19.92 26 27.84 26 36 C25.34 36 24.68 36 24 36 C24 38.64 24 41.28 24 44 C23.38125 44.268125 22.7625 44.53625 22.125 44.8125 C19.7004767 45.95556848 19.7004767 45.95556848 18 49 C14.875 49.1875 14.875 49.1875 12 49 C12 49.99 12 50.98 12 52 C8.7 52 5.4 52 2 52 C2 51.01 2 50.02 2 49 C0.02 49 -1.96 49 -4 49 C-4.433125 48.0409375 -4.433125 48.0409375 -4.875 47.0625 C-5.82823451 44.84793921 -5.82823451 44.84793921 -8 44 C-8 41.69 -8 39.38 -8 37 C-8.99 37 -9.98 37 -11 37 C-11 28.75 -11 20.5 -11 12 C-10.01 12 -9.02 12 -8 12 C-8 10.02 -8 8.04 -8 6 C-7.01 5.67 -6.02 5.34 -5 5 C-4.34 4.01 -3.68 3.02 -3 2 C-2.01 2 -1.02 2 0 2 C0 1.34 0 0.68 0 0 Z " fill="#F6FAF8" transform="translate(874,228)"/>
<path d="M0 0 C10.89 0 21.78 0 33 0 C33 0.99 33 1.98 33 3 C33.99 3 34.98 3 36 3 C36 11.91 36 20.82 36 30 C35.01 30 34.02 30 33 30 C32.505 31.485 32.505 31.485 32 33 C21.44 33 10.88 33 0 33 C0 31.68 0 30.36 0 29 C-0.66 29 -1.32 29 -2 29 C-2 20.42 -2 11.84 -2 3 C-1.34 3 -0.68 3 0 3 C0 2.01 0 1.02 0 0 Z " fill="#98BF5E" transform="translate(1844,147)"/>
<path d="M0 0 C10.56 0 21.12 0 32 0 C32 0.66 32 1.32 32 2 C32.99 2 33.98 2 35 2 C35 11.9 35 21.8 35 32 C23.45 32 11.9 32 0 32 C0 31.34 0 30.68 0 30 C-0.66 30 -1.32 30 -2 30 C-2 20.76 -2 11.52 -2 2 C-1.34 2 -0.68 2 0 2 C0 1.34 0 0.68 0 0 Z " fill="#96C05E" transform="translate(1359,153)"/>
<path d="M0 0 C10.56 0 21.12 0 32 0 C32 0.66 32 1.32 32 2 C32.66 2 33.32 2 34 2 C34 10.91 34 19.82 34 29 C33.01 29.495 33.01 29.495 32 30 C31.505 31.485 31.505 31.485 31 33 C21.1 33 11.2 33 1 33 C0.67 31.68 0.34 30.36 0 29 C-0.66 29 -1.32 29 -2 29 C-2 20.09 -2 11.18 -2 2 C-1.34 2 -0.68 2 0 2 C0 1.34 0 0.68 0 0 Z " fill="#156942" transform="translate(966,153)"/>
<path d="M0 0 C0.99 0 1.98 0 3 0 C3 2.31 3 4.62 3 7 C3.99 7 4.98 7 6 7 C6 9.97 6 12.94 6 16 C6.99 16 7.98 16 9 16 C9 18.64 9 21.28 9 24 C9.99 24 10.98 24 12 24 C12 26.64 12 29.28 12 32 C12.66 32 13.32 32 14 32 C14 34.31 14 36.62 14 39 C14.99 39 15.98 39 17 39 C17 41.31 17 43.62 17 46 C17.99 46 18.98 46 20 46 C20.495 49.96 20.495 49.96 21 54 C8.46 54 -4.08 54 -17 54 C-17 52.35 -17 50.7 -17 49 C-16.01 49 -15.02 49 -14 49 C-14 46.36 -14 43.72 -14 41 C-13.01 41 -12.02 41 -11 41 C-11 38.69 -11 36.38 -11 34 C-9.515 33.505 -9.515 33.505 -8 33 C-8 30.36 -8 27.72 -8 25 C-7.34 25 -6.68 25 -6 25 C-6 22.36 -6 19.72 -6 17 C-5.34 16.67 -4.68 16.34 -4 16 C-3.53476937 14.10466658 -3.53476937 14.10466658 -3.375 11.9375 C-3.25125 10.638125 -3.1275 9.33875 -3 8 C-2.01 8 -1.02 8 0 8 C0 5.36 0 2.72 0 0 Z " fill="#FBFCF9" transform="translate(1728,194)"/>
<path d="M0 0 C5.61 0 11.22 0 17 0 C17 0.99 17 1.98 17 3 C17.99 3 18.98 3 20 3 C24 8 24 8 24 21 C13.44 21 2.88 21 -8 21 C-8 17.37 -8 13.74 -8 10 C-7.01 10 -6.02 10 -5 10 C-4.7834375 9.071875 -4.7834375 9.071875 -4.5625 8.125 C-4 6 -4 6 -3 4 C-2.01 4 -1.02 4 0 4 C0 2.68 0 1.36 0 0 Z " fill="#ECF4EF" transform="translate(743,223)"/>
<path d="M0 0 C15.03280695 -0.86065689 15.03280695 -0.86065689 18.9375 2.3125 C21 5 21 5 21 8 C21.66 8 22.32 8 23 8 C23 11.63 23 15.26 23 19 C12.44 19 1.88 19 -9 19 C-9 15.37 -9 11.74 -9 8 C-8.01 8 -7.02 8 -6 8 C-6 7.01 -6 6.02 -6 5 C-5.34 5 -4.68 5 -4 5 C-4 4.34 -4 3.68 -4 3 C-3.01 2.67 -2.02 2.34 -1 2 C-0.67 1.34 -0.34 0.68 0 0 Z " fill="#FAFDF9" transform="translate(1588,224)"/>
<path d="M0 0 C1.98 0 3.96 0 6 0 C6 0.99 6 1.98 6 3 C4.36368108 4.04892238 2.69514137 5.04906703 1 6 C0.67 6.66 0.34 7.32 0 8 C-0.7425 8.103125 -1.485 8.20625 -2.25 8.3125 C-5.92405724 9.23101431 -7.39298985 11.32614344 -10 14 C-12.3125 14.8125 -12.3125 14.8125 -14 15 C-13.79375 14.38125 -13.5875 13.7625 -13.375 13.125 C-13.25125 12.42375 -13.1275 11.7225 -13 11 C-13.66 10.34 -14.32 9.68 -15 9 C-14.071875 8.7525 -13.14375 8.505 -12.1875 8.25 C-8.92878265 7.29924262 -8.92878265 7.29924262 -7.4375 4.875 C-6.963125 4.25625 -6.48875 3.6375 -6 3 C-3.3125 2.75 -3.3125 2.75 -1 3 C-0.67 2.01 -0.34 1.02 0 0 Z " fill="#F5F8F2" transform="translate(269,249)"/>
<path d="M0 0 C2.71505571 0.42869301 5.41651821 0.86743989 8.09765625 1.4765625 C15.68281764 3.17340996 23.25701565 3.60768879 31 4 C31 4.33 31 4.66 31 5 C23.76568401 5.88070797 16.6581629 6.12570502 9.375 6.0625 C8.37082031 6.05798828 7.36664063 6.05347656 6.33203125 6.04882812 C3.88795529 6.03718967 1.4440118 6.0208424 -1 6 C-0.67 4.02 -0.34 2.04 0 0 Z " fill="#025630" transform="translate(218,391)"/>
<path d="M0 0 C0.66 0 1.32 0 2 0 C2.33 12.21 2.66 24.42 3 37 C2.01 37 1.02 37 0 37 C0 24.79 0 12.58 0 0 Z " fill="#0C5C37" transform="translate(697,236)"/>
<path d="M0 0 C9.57 0 19.14 0 29 0 C29 0.99 29 1.98 29 3 C19.43 3 9.86 3 0 3 C0 2.01 0 1.02 0 0 Z " fill="#085635" transform="translate(854,306)"/>
<path d="M0 0 C2.77109307 -0.05392397 5.54113818 -0.09363455 8.3125 -0.125 C9.09818359 -0.14175781 9.88386719 -0.15851563 10.69335938 -0.17578125 C11.45068359 -0.18222656 12.20800781 -0.18867188 12.98828125 -0.1953125 C13.68477783 -0.20578613 14.38127441 -0.21625977 15.09887695 -0.22705078 C17 0 17 0 20 2 C18.865625 1.9071875 17.73125 1.814375 16.5625 1.71875 C7.97118428 1.01694892 7.97118428 1.01694892 0.08984375 3.78125 C-1.8316073 5.76198357 -3.48371622 7.69730464 -5 10 C-5.33 9.01 -5.66 8.02 -6 7 C-4.75 4.8125 -4.75 4.8125 -3 3 C-2.01 3 -1.02 3 0 3 C0 2.01 0 1.02 0 0 Z " fill="#E4F1D9" transform="translate(1463,228)"/>
<path d="M0 0 C0.66 0.33 1.32 0.66 2 1 C1.06027344 2.01320313 1.06027344 2.01320313 0.1015625 3.046875 C-0.71570313 3.93890625 -1.53296875 4.8309375 -2.375 5.75 C-3.18710938 6.63171875 -3.99921875 7.5134375 -4.8359375 8.421875 C-6.6625848 10.59802521 -7.89787994 12.40820119 -9 15 C-9.66 15 -10.32 15 -11 15 C-11 15.66 -11 16.32 -11 17 C-11.99 16.67 -12.98 16.34 -14 16 C-13.34 16 -12.68 16 -12 16 C-11.9071875 14.576875 -11.9071875 14.576875 -11.8125 13.125 C-11.544375 12.09375 -11.27625 11.0625 -11 10 C-8.5625 8.875 -8.5625 8.875 -6 8 C-4.89163577 6.11683841 -4.89163577 6.11683841 -4 4 C-2.70529025 2.62913085 -1.37849103 1.28659163 0 0 Z " fill="#DAEACA" transform="translate(209,293)"/>
<path d="M0 0 C0.99 0.33 1.98 0.66 3 1 C2.34 1 1.68 1 1 1 C1 1.66 1 2.32 1 3 C1.99 3.33 2.98 3.66 4 4 C2.37660195 5.70884005 0.70680947 7.37446717 -1 9 C-1.66 9 -2.32 9 -3 9 C-3.66 10.65 -4.32 12.3 -5 14 C-6.04449911 10.86650268 -5.93423645 10.01031744 -5 7 C-4.34 7 -3.68 7 -3 7 C-2.67 6.01 -2.34 5.02 -2 4 C-1.34 4 -0.68 4 0 4 C0 2.68 0 1.36 0 0 Z " fill="#488F6E" transform="translate(605,207)"/>
<path d="M0 0 C5.94 0 11.88 0 18 0 C18 0.99 18 1.98 18 3 C11.73 2.67 5.46 2.34 -1 2 C-0.67 1.34 -0.34 0.68 0 0 Z " fill="#055933" transform="translate(277,394)"/>
<path d="M0 0 C0.33 0.66 0.66 1.32 1 2 C-1.125 4.5625 -1.125 4.5625 -4 7 C-7.3125 6.8125 -7.3125 6.8125 -10 6 C-10 6.99 -10 7.98 -10 9 C-13.63 9 -17.26 9 -21 9 C-21 8.67 -21 8.34 -21 8 C-17.7 8 -14.4 8 -11 8 C-11 7.01 -11 6.02 -11 5 C-10.05125 4.896875 -9.1025 4.79375 -8.125 4.6875 C-4.70892499 4.31460705 -4.70892499 4.31460705 -3 1 C-2.01 0.67 -1.02 0.34 0 0 Z " fill="#367D5F" transform="translate(897,272)"/>
<path d="M0 0 C0.33 0.66 0.66 1.32 1 2 C-3.03523352 6.81123996 -7.04467233 11.13242719 -12 15 C-12.66 14.67 -13.32 14.34 -14 14 C-9.38 9.38 -4.76 4.76 0 0 Z " fill="#A8D07A" transform="translate(203,192)"/>
<path d="M0 0 C3.2578125 0.0234375 3.2578125 0.0234375 7.125 0.375 C8.40632812 0.48585937 9.68765625 0.59671875 11.0078125 0.7109375 C12.48894531 0.85402344 12.48894531 0.85402344 14 1 C14 1.33 14 1.66 14 2 C10.04 2 6.08 2 2 2 C2 2.66 2 3.32 2 4 C1.01 4.33 0.02 4.66 -1 5 C-1.99 6.485 -1.99 6.485 -3 8 C-3.66 7.67 -4.32 7.34 -5 7 C-3.47793991 4.37098712 -2.15634036 2.15634036 0 0 Z " fill="#37815E" transform="translate(872,226)"/>
<path d="M0 0 C0.33 0.66 0.66 1.32 1 2 C1.66 2.33 2.32 2.66 3 3 C1.76302083 4.46484375 0.52604167 5.9296875 -0.7109375 7.39453125 C-1.89201099 8.8655046 -2.95358529 10.43037794 -4 12 C-4.66 12 -5.32 12 -6 12 C-6.33 12.99 -6.66 13.98 -7 15 C-6.67 13.02 -6.34 11.04 -6 9 C-5.34 9 -4.68 9 -4 9 C-3.896875 8.443125 -3.79375 7.88625 -3.6875 7.3125 C-2.86866423 4.55823422 -1.54146219 2.41272343 0 0 Z " fill="#398562" transform="translate(632,163)"/>
<path d="M0 0 C1.32 0.33 2.64 0.66 4 1 C3.01 1.33 2.02 1.66 1 2 C-0.7841145 3.7227086 -0.7841145 3.7227086 -2.5 5.8125 C-3.0878125 6.49957031 -3.675625 7.18664062 -4.28125 7.89453125 C-5.91149424 9.89158044 -7.47060322 11.9250562 -9 14 C-9.375 11.3125 -9.375 11.3125 -9 8 C-7.18573316 5.83295905 -5.38051466 4.61874997 -3 3 C-2.34 3 -1.68 3 -1 3 C-0.67 2.01 -0.34 1.02 0 0 Z " fill="#BAD4CA" transform="translate(197,175)"/>
<path d="M0 0 C1.65 0 3.3 0 5 0 C4.01 0.33 3.02 0.66 2 1 C1.31558691 2.3243115 0.65095851 3.65892758 0 5 C-1.7265625 6.703125 -1.7265625 6.703125 -3.625 8.25 C-4.25664062 8.77078125 -4.88828125 9.2915625 -5.5390625 9.828125 C-6.02117187 10.21484375 -6.50328125 10.6015625 -7 11 C-7.66 10.67 -8.32 10.34 -9 10 C-8.43410156 9.44570312 -7.86820313 8.89140625 -7.28515625 8.3203125 C-6.55167969 7.59585938 -5.81820312 6.87140625 -5.0625 6.125 C-4.33160156 5.40570313 -3.60070312 4.68640625 -2.84765625 3.9453125 C-0.94332001 2.12972808 -0.94332001 2.12972808 0 0 Z " fill="#A7D07A" transform="translate(213,181)"/>
<path d="M0 0 C1.98 0 3.96 0 6 0 C6 0.99 6 1.98 6 3 C4.02 3.99 2.04 4.98 0 6 C0 5.34 0 4.68 0 4 C-1.98 4 -3.96 4 -6 4 C-6 3.67 -6 3.34 -6 3 C-4.35 3 -2.7 3 -1 3 C-0.67 2.01 -0.34 1.02 0 0 Z " fill="#E2EDD5" transform="translate(269,249)"/>
<path d="M0 0 C0.33 0.99 0.66 1.98 1 3 C-0.1875 4.5 -0.1875 4.5 -2 6 C-4.6875 6.1875 -4.6875 6.1875 -7 6 C-7.309375 6.639375 -7.61875 7.27875 -7.9375 7.9375 C-9 10 -9 10 -10 11 C-11.99958364 11.04080783 -14.00045254 11.04254356 -16 11 C-16 10.67 -16 10.34 -16 10 C-14.35 10 -12.7 10 -11 10 C-10.67 9.01 -10.34 8.02 -10 7 C-9.34 7 -8.68 7 -8 7 C-8 6.34 -8 5.68 -8 5 C-6.35 5 -4.7 5 -3 5 C-2.690625 4.360625 -2.38125 3.72125 -2.0625 3.0625 C-1 1 -1 1 0 0 Z " fill="#A8D07B" transform="translate(428,89)"/>
<path d="M0 0 C0.33 0.99 0.66 1.98 1 3 C0.505 3.433125 0.01 3.86625 -0.5 4.3125 C-2.33218192 5.99740483 -2.33218192 5.99740483 -2 9 C-3.65 9.66 -5.3 10.32 -7 11 C-6.79375 10.38125 -6.5875 9.7625 -6.375 9.125 C-6.25125 8.42375 -6.1275 7.7225 -6 7 C-6.66 6.34 -7.32 5.68 -8 5 C-7.05125 4.731875 -6.1025 4.46375 -5.125 4.1875 C-1.74732727 3.25013412 -1.74732727 3.25013412 0 0 Z " fill="#ECF3E4" transform="translate(262,253)"/>
<path d="M0 0 C0.33 1.32 0.66 2.64 1 4 C-2.85477249 6.56984833 -6.52040582 7.85814266 -11 9 C-10.67 8.01 -10.34 7.02 -10 6 C-8.35 6 -6.7 6 -5 6 C-5 5.01 -5 4.02 -5 3 C-3.35 3 -1.7 3 0 3 C0 2.01 0 1.02 0 0 Z " fill="#DEEFD3" transform="translate(231,364)"/>
<path d="M0 0 C3.3 0 6.6 0 10 0 C10 0.33 10 0.66 10 1 C8.35 1 6.7 1 5 1 C4.67 2.98 4.34 4.96 4 7 C3.67 5.68 3.34 4.36 3 3 C2.01 3 1.02 3 0 3 C0 2.01 0 1.02 0 0 Z " fill="#23704B" transform="translate(213,390)"/>
<path d="M0 0 C0.66 0 1.32 0 2 0 C0.61811547 3.21043882 -0.92421903 5.04936365 -3.625 7.25 C-4.57246094 8.03117187 -4.57246094 8.03117187 -5.5390625 8.828125 C-6.02117187 9.21484375 -6.50328125 9.6015625 -7 10 C-7 7 -7 7 -5.625 5.3125 C-4 4 -4 4 -2 4 C-2 3.34 -2 2.68 -2 2 C-1.34 2 -0.68 2 0 2 C0 1.34 0 0.68 0 0 Z " fill="#E0EDD3" transform="translate(223,279)"/>
<path d="M0 0 C1.32 0.33 2.64 0.66 4 1 C4.66 4.3 5.32 7.6 6 11 C5.34 10.34 4.68 9.68 4 9 C4 8.01 4 7.02 4 6 C3.01 5.67 2.02 5.34 1 5 C0.67 3.35 0.34 1.7 0 0 Z " fill="#317F5C" transform="translate(571,252)"/>
<path d="M0 0 C0.66 0.33 1.32 0.66 2 1 C1.71848913 2.31471568 1.42446661 3.62675767 1.125 4.9375 C0.96257813 5.66839844 0.80015625 6.39929688 0.6328125 7.15234375 C0 9 0 9 -2 10 C-2.66 9.67 -3.32 9.34 -4 9 C-4.33 9.99 -4.66 10.98 -5 12 C-5 10.68 -5 9.36 -5 8 C-4.34 8 -3.68 8 -3 8 C-3 7.34 -3 6.68 -3 6 C-2.01 6 -1.02 6 0 6 C0 4.02 0 2.04 0 0 Z " fill="#4E9375" transform="translate(620,181)"/>
<path d="M0 0 C2.64 0 5.28 0 8 0 C8 0.33 8 0.66 8 1 C5.69 1 3.38 1 1 1 C1 1.99 1 2.98 1 4 C-2.75 5.125 -2.75 5.125 -5 4 C-5 3.34 -5 2.68 -5 2 C-3.35 2 -1.7 2 0 2 C0 1.34 0 0.68 0 0 Z " fill="#438D6A" transform="translate(723,202)"/>
<path d="M0 0 C0.33 0 0.66 0 1 0 C1.3125 2.6875 1.3125 2.6875 1 6 C-1.5 8.875 -1.5 8.875 -4 11 C-4.99 10.67 -5.98 10.34 -7 10 C-6.030625 9.278125 -5.06125 8.55625 -4.0625 7.8125 C-1.70086494 5.86762407 -1.06587669 5.2117465 -0.125 2.1875 C-0.08375 1.465625 -0.0425 0.74375 0 0 Z " fill="#E1EED8" transform="translate(1522,288)"/>
<path d="M0 0 C0.66 0.33 1.32 0.66 2 1 C1.01 2.98 0.02 4.96 -1 7 C-1.99 7 -2.98 7 -4 7 C-4.33 7.99 -4.66 8.98 -5 10 C-5.66 9.67 -6.32 9.34 -7 9 C-6.34 8.01 -5.68 7.02 -5 6 C-4.01 6 -3.02 6 -2 6 C-1.855625 5.195625 -1.71125 4.39125 -1.5625 3.5625 C-1 1 -1 1 0 0 Z " fill="#4B8F6F" transform="translate(837,209)"/>
<path d="M0 0 C0.33 0.66 0.66 1.32 1 2 C-0.32 2 -1.64 2 -3 2 C-3 2.66 -3 3.32 -3 4 C-3.66 4 -4.32 4 -5 4 C-5.66 5.32 -6.32 6.64 -7 8 C-7 5.37886292 -6.68707555 3.49064888 -6 1 C-4.02 0.67 -2.04 0.34 0 0 Z " fill="#66A085" transform="translate(217,160)"/>
<path d="M0 0 C1.65 0 3.3 0 5 0 C1.92000054 3.67230705 -0.2482602 4.56802365 -5 5 C-5 4.34 -5 3.68 -5 3 C-3.35 3 -1.7 3 0 3 C0 2.01 0 1.02 0 0 Z " fill="#055E34" transform="translate(235,382)"/>
<path d="M0 0 C0.33 0.66 0.66 1.32 1 2 C-0.39121745 4.7824349 -2.30164212 5.55210065 -5 7 C-5.66 7 -6.32 7 -7 7 C-7 6.34 -7 5.68 -7 5 C-6.34 5 -5.68 5 -5 5 C-4.67 4.01 -4.34 3.02 -4 2 C-1.9375 0.8125 -1.9375 0.8125 0 0 Z " fill="#D9E9C9" transform="translate(232,272)"/>
<path d="M0 0 C0.33 0.99 0.66 1.98 1 3 C-1.25 5.0625 -1.25 5.0625 -4 7 C-6.3125 6.75 -6.3125 6.75 -8 6 C-3.25 3 -3.25 3 -1 3 C-0.67 2.01 -0.34 1.02 0 0 Z " fill="#B0D282" transform="translate(264,257)"/>
<path d="M0 0 C0.99 0.495 0.99 0.495 2 1 C3.1577506 4.47325181 3.06866652 7.36067448 3 11 C2.67 11 2.34 11 2 11 C0.57741188 7.17679443 -0.24042276 4.08718695 0 0 Z " fill="#CFE5B8" transform="translate(185,444)"/>
<path d="M0 0 C1.2065625 0.0309375 1.2065625 0.0309375 2.4375 0.0625 C1.2309375 0.9596875 1.2309375 0.9596875 0 1.875 C-2.78577984 3.87197276 -2.78577984 3.87197276 -3.5625 7.0625 C-4.5525 6.7325 -5.5425 6.4025 -6.5625 6.0625 C-5.9025 6.0625 -5.2425 6.0625 -4.5625 6.0625 C-4.418125 5.258125 -4.27375 4.45375 -4.125 3.625 C-3.347189 0.08163876 -3.347189 0.08163876 0 0 Z " fill="#E3F1D9" transform="translate(1317.5625,233.9375)"/>
</svg>
